<svg width="18" height="12" viewBox="0 0 18 12" fill="none" xmlns="http://www.w3.org/2000/svg">
<path d="M17.2488 4.33583C17.2859 3.26232 17.0511 2.19685 16.5663 1.23833C16.2374 0.845032 15.7808 0.579615 15.2763 0.488333C13.1894 0.298977 11.0939 0.221366 8.9988 0.255833C6.91128 0.219802 4.82333 0.294908 2.7438 0.480833C2.33266 0.55562 1.95219 0.748464 1.6488 1.03583C0.973799 1.65833 0.898799 2.72333 0.823799 3.62333C0.714984 5.24151 0.714984 6.86516 0.823799 8.48333C0.845497 8.98989 0.92092 9.49271 1.0488 9.98333C1.13923 10.3621 1.32219 10.7126 1.5813 11.0033C1.88675 11.3059 2.27609 11.5097 2.6988 11.5883C4.31574 11.7879 5.94496 11.8706 7.5738 11.8358C10.1988 11.8733 12.5013 11.8358 15.2238 11.6258C15.6569 11.5521 16.0572 11.348 16.3713 11.0408C16.5813 10.8308 16.7381 10.5737 16.8288 10.2908C17.097 9.4678 17.2288 8.60642 17.2188 7.74083C17.2488 7.32083 17.2488 4.78583 17.2488 4.33583ZM7.3038 8.19083V3.54833L11.7438 5.88083C10.4988 6.57083 8.8563 7.35083 7.3038 8.19083Z" fill="#0486CB"/>
</svg>
