<svg width="17" height="17" viewBox="0 0 17 17" fill="none" xmlns="http://www.w3.org/2000/svg">
<path fill-rule="evenodd" clip-rule="evenodd" d="M5.28491 0H11.3831C14.1892 0 16.4648 2.27539 16.4648 5.08203V11.1802C16.4648 13.9863 14.1892 16.2617 11.3831 16.2617H5.28491C2.47876 16.2617 0.203125 13.9863 0.203125 11.1802V5.08203C0.203125 2.27539 2.47876 0 5.28491 0ZM11.382 14.7373C13.3435 14.7373 14.9392 13.1416 14.9392 11.1797V5.08154C14.9392 3.12012 13.3435 1.52441 11.382 1.52441H5.28381C3.32227 1.52441 1.72656 3.12012 1.72656 5.08154V11.1797C1.72656 13.1416 3.32227 14.7373 5.28381 14.7373H11.382Z" fill="#0486CB"/>
<path fill-rule="evenodd" clip-rule="evenodd" d="M4.26953 8.13086C4.26953 5.88574 6.08984 4.06543 8.33496 4.06543C10.5801 4.06543 12.4004 5.88574 12.4004 8.13086C12.4004 10.376 10.5801 12.1963 8.33496 12.1963C6.08984 12.1963 4.26953 10.376 4.26953 8.13086ZM5.79492 8.13086C5.79492 9.53125 6.9353 10.6719 8.33582 10.6719C9.73633 10.6719 10.8767 9.53125 10.8767 8.13086C10.8767 6.729 9.73633 5.58984 8.33582 5.58984C6.9353 5.58984 5.79492 6.729 5.79492 8.13086Z" fill="#0486CB"/>
<circle cx="12.7058" cy="3.76047" r="0.541719" fill="#0486CB"/>
</svg>
