<svg width="40" height="41" viewBox="0 0 40 41" fill="none" xmlns="http://www.w3.org/2000/svg">
<g clip-path="url(#clip0_310_1860)">
<path d="M39.9789 20.8835C39.9789 19.2037 39.8428 17.9779 39.5483 16.7068H20.3984V24.2883H31.639C31.4125 26.1725 30.1887 29.0099 27.4691 30.9166L27.431 31.1704L33.4858 35.8687L33.9053 35.9106C37.7579 32.3467 39.9789 27.1031 39.9789 20.8835Z" fill="black"/>
<path d="M20.3985 40.8593C25.9054 40.8593 30.5286 39.0432 33.9054 35.9108L27.4692 30.9168C25.7469 32.1198 23.4352 32.9597 20.3985 32.9597C15.0049 32.9597 10.427 29.396 8.79518 24.4702L8.55598 24.4906L2.26007 29.371L2.17773 29.6002C5.53176 36.2738 12.4212 40.8593 20.3985 40.8593Z" fill="black"/>
<path d="M8.79495 24.47C8.36437 23.1989 8.11518 21.8368 8.11518 20.4295C8.11518 19.022 8.36437 17.6601 8.7723 16.389L8.76089 16.1182L2.38608 11.1594L2.17751 11.2588C0.795153 14.0282 0.00195312 17.1381 0.00195312 20.4295C0.00195312 23.7209 0.795153 26.8307 2.17751 29.6L8.79495 24.47Z" fill="black"/>
<path d="M20.3985 7.89939C24.2284 7.89939 26.8119 9.55644 28.285 10.9412L34.0413 5.31169C30.5061 2.02027 25.9054 0 20.3985 0C12.4212 0 5.53176 4.58527 2.17773 11.2589L8.77252 16.389C10.427 11.4633 15.0048 7.89939 20.3985 7.89939Z" fill="black"/>
</g>
<defs>
<clipPath id="clip0_310_1860">
<rect width="40" height="41" fill="white"/>
</clipPath>
</defs>
</svg>
