<svg width="38" height="38" viewBox="0 0 38 38" fill="none" xmlns="http://www.w3.org/2000/svg">
<path d="M19 38C24.0748 38 28.8462 36.0234 32.4342 32.4348C36.0234 28.8462 38 24.0748 38 19C38 13.9252 36.0234 9.15384 32.4348 5.56581C28.8462 1.97659 24.0748 0 19 0C13.9252 0 9.15384 1.97659 5.56581 5.56522C1.97659 9.15384 0 13.9252 0 19C0 24.0748 1.97659 28.8462 5.56522 32.4342C9.15384 36.0234 13.9252 38 19 38ZM7.24494 7.24494C10.3847 4.10459 14.5593 2.375 19 2.375C23.4407 2.375 27.6153 4.10459 30.7551 7.24494C33.8954 10.3847 35.625 14.5593 35.625 19C35.625 23.4407 33.8954 27.6153 30.7551 30.7551C27.6153 33.8954 23.4407 35.625 19 35.625C14.5593 35.625 10.3847 33.8954 7.24494 30.7551C4.10459 27.6153 2.375 23.4407 2.375 19C2.375 14.5593 4.10459 10.3847 7.24494 7.24494Z" fill="#162960"/>
<path d="M14.2127 28.5001H14.2501C14.4101 28.5001 14.5683 28.4678 14.7154 28.4051C14.8626 28.3425 14.9955 28.2508 15.1063 28.1355L29.9501 12.698C30.0582 12.5856 30.143 12.4529 30.1998 12.3077C30.2567 12.1625 30.2843 12.0075 30.2812 11.8515C30.2781 11.6956 30.2444 11.5418 30.1818 11.399C30.1193 11.2561 30.0293 11.1269 29.9168 11.0189C29.8044 10.9108 29.6718 10.8259 29.5265 10.7691C29.3813 10.7123 29.2263 10.6846 29.0704 10.6877C28.9145 10.6908 28.7607 10.7246 28.6178 10.7871C28.4749 10.8496 28.3458 10.9397 28.2377 11.0521L14.3066 25.5408L8.62556 18.8267C8.4221 18.5862 8.13146 18.4364 7.81756 18.4103C7.50367 18.3841 7.19224 18.4837 6.95178 18.6871C6.71132 18.8906 6.56153 19.1812 6.53536 19.4951C6.50919 19.809 6.60879 20.1205 6.81224 20.3609L13.3435 28.0797C13.5608 28.3368 13.8767 28.5001 14.2127 28.5001Z" fill="#162960"/>
</svg>
