<svg width="50" height="41" viewBox="0 0 50 41" fill="none" xmlns="http://www.w3.org/2000/svg">
<path fill-rule="evenodd" clip-rule="evenodd" d="M27.3136 8.90648C28.328 6.42626 30.7173 4.80792 33.3668 4.80589C36.985 4.81004 39.9186 7.78088 39.9226 11.4475C39.9226 14.1344 38.3256 16.5558 35.8763 17.5841C33.4291 18.6123 30.6095 18.0445 28.7344 16.1442C26.8613 14.2461 26.301 11.3887 27.3136 8.90648ZM28.6221 13.4389C29.4166 15.3837 31.2896 16.6532 33.3668 16.6532C36.2023 16.6496 38.4999 14.3209 38.5039 11.4472C38.5039 9.34217 37.2532 7.44399 35.3341 6.63886C33.4129 5.83374 31.2056 6.27789 29.7368 7.76645C28.2659 9.25511 27.8277 11.494 28.6221 13.4389ZM44.069 16.9189C44.161 17.0142 44.2971 17.1481 44.4672 17.3144L44.472 17.3141C47.1996 19.9888 49.9891 22.9741 49.9991 24.8317C50.0131 25.2555 49.8551 25.6652 49.5609 25.9694L47.6958 27.8595C47.4016 28.1535 47.0034 28.3117 46.5892 28.3016H46.5732C45.6126 28.1738 44.7081 27.7702 43.9636 27.1395V28.8917C43.9596 31.0049 42.2707 32.7165 40.1855 32.7206H28.0124C27.9803 33.6129 28.2785 34.487 28.8448 35.1725H30.89C31.4763 35.1745 31.9526 35.6572 31.9546 36.2534V37.8372C31.9526 39.3055 30.7779 40.498 29.3271 40.5H14.7426C13.2938 40.498 12.1191 39.3055 12.1171 37.8372V36.2534C12.1171 35.6571 12.5934 35.1745 13.1817 35.1725H15.1168C15.6851 34.489 15.9813 33.615 15.9493 32.7206H3.77617C1.69098 32.7186 0.00200102 31.0049 0 28.8917V4.32886C0.00199794 2.21569 1.69098 0.504056 3.77617 0.5H40.1808C42.266 0.50405 43.9569 2.21569 43.9589 4.32886V16.8195C43.9969 16.8499 44.0329 16.8844 44.0689 16.9188L44.069 16.9189ZM41.8257 23.376L45.2476 20.1373L45.2516 20.1393C44.7413 19.5999 44.155 19.0037 43.4826 18.3466C43.4444 18.3088 43.4078 18.2726 43.373 18.2381C43.2471 18.1135 43.1436 18.0111 43.0684 17.9349C43.0604 17.9268 43.0464 17.9227 43.0344 17.9227C43.0224 17.9227 43.0083 17.9268 43.0003 17.9349L39.7705 21.2081C39.7605 21.2182 39.7565 21.2304 39.7565 21.2446C39.7565 21.2568 39.7605 21.2689 39.7705 21.2791H39.7685C39.8665 21.3764 40.0046 21.5204 40.1747 21.6989C40.7751 22.3296 41.3234 22.8853 41.8257 23.376ZM33.3706 19.103C35.3739 19.103 37.295 18.2979 38.7118 16.8621C40.1266 15.4261 40.9231 13.4775 40.9231 11.4473C40.9231 9.41708 40.1266 7.47021 38.7118 6.03237C37.2949 4.59656 35.3738 3.79144 33.3706 3.79144C31.3674 3.79346 29.4483 4.60061 28.0315 6.03439C26.6147 7.47031 25.8203 9.41708 25.8203 11.4472C25.8203 13.4774 26.6146 15.4243 28.0315 16.8601C29.4484 18.2959 31.3675 19.101 33.3706 19.103ZM40.3748 17.1278C40.1686 17.3914 39.9485 17.6408 39.7144 17.8781C39.4802 18.1154 39.2341 18.3385 38.9779 18.5474L39.6863 19.2653L41.0832 17.8477L40.3748 17.1278ZM40.1847 1.93811H3.77595C2.47319 1.93811 1.41657 3.00878 1.41657 4.32902V26.5053L42.5461 26.5073V26.0044C41.4374 25.0329 40.2708 23.8608 39.1601 22.6987C39.1229 22.6602 39.0875 22.6233 39.0538 22.5883C38.9369 22.4669 38.8413 22.3676 38.7699 22.2951C38.2316 21.7476 38.1955 20.8755 38.6858 20.2854L37.7793 19.3667C35.2419 20.8168 32.166 20.9263 29.5345 19.6608C26.903 18.3956 25.0419 15.9111 24.5456 13.003C24.0493 10.0926 24.9799 7.12154 27.039 5.03272C29.1005 2.9459 32.0321 2.00288 34.9038 2.50583C37.7733 3.0088 40.2247 4.89467 41.4734 7.56164C42.7221 10.2286 42.6141 13.3456 41.1833 15.9171L42.0898 16.8358C42.2238 16.7202 42.3779 16.631 42.546 16.5721V4.32914C42.544 3.00889 41.4874 1.93811 40.1847 1.93811ZM29.3264 39.0624C29.9948 39.0624 30.5371 38.5149 30.5371 37.8375L30.5368 36.6106H13.5312V37.8375C13.5332 38.5149 14.0736 39.0624 14.742 39.0624H29.3264ZM16.8053 35.1727L27.1552 35.1748L27.1554 35.1727C26.7631 34.4183 26.571 33.5726 26.593 32.7209H17.3677C17.3896 33.5727 17.1975 34.4183 16.8053 35.1727ZM3.77616 31.2871H40.1849C41.4896 31.285 42.5463 30.2143 42.5463 28.892V27.9409H1.41679V28.896C1.41879 30.2163 2.47339 31.285 3.77616 31.2871ZM46.6968 26.8459L48.5619 24.9537C48.5799 24.9213 48.5879 24.8828 48.5839 24.8463C48.5799 24.3453 48.1037 23.3131 46.2186 21.1918L42.8646 24.3636C45.0359 26.3652 46.0845 26.8641 46.5868 26.8682C46.6248 26.8722 46.6628 26.8641 46.6968 26.8459ZM4.24862 17.7744C4.11654 17.9083 4.0405 18.0908 4.0405 18.2814C4.0405 18.472 4.11654 18.6545 4.24862 18.7884C4.3827 18.9243 4.5628 18.9993 4.75091 18.9993H21.3426C21.7348 18.9993 22.053 18.6789 22.053 18.2814C22.053 17.8839 21.7348 17.5635 21.3426 17.5635H4.75091C4.5628 17.5635 4.3827 17.6385 4.24862 17.7744ZM4.7509 21.4431C4.35868 21.4431 4.0405 21.7655 4.0405 22.161C4.0405 22.3516 4.11653 22.5362 4.24861 22.67C4.38269 22.8039 4.56279 22.8809 4.7509 22.8809H21.3425C21.7348 22.8809 22.0529 22.5585 22.0529 22.161C22.0529 21.7655 21.7348 21.4431 21.3425 21.4431H4.7509ZM26.3615 21.4431C25.9693 21.4431 25.6531 21.7655 25.6531 22.161C25.6531 22.3516 25.7271 22.5362 25.8592 22.67C25.9933 22.8039 26.1734 22.8809 26.3615 22.8809H35.3845C35.7747 22.8809 36.0929 22.5585 36.0929 22.161C36.0929 21.7655 35.7747 21.4431 35.3845 21.4431H26.3615Z" fill="#162960"/>
<rect x="3" y="19.5" width="21" height="5" fill="#DDF3FF"/>
<rect x="25" y="20.5" width="12" height="3.5" fill="#DDF3FF"/>
<path d="M5 8H21" stroke="black" stroke-linecap="round"/>
<path d="M5 12.5H21" stroke="black" stroke-linecap="round"/>
</svg>
