<svg width="2272" height="1811" viewBox="0 0 2272 1811" fill="none" xmlns="http://www.w3.org/2000/svg">
<path opacity="0.16" d="M811.406 1073.96C1107.19 1014.19 1341.31 915.796 1526.49 798.336C1830.23 605.674 2002.26 362.143 2099.37 155.07L2100.86 158.27C2003.12 365.397 1830.97 608.662 1527.74 801.002C1342.3 918.624 1107.93 1017.18 811.765 1076.84C438.681 1152.47 191.34 1247.85 28.9856 1346.68L27.7422 1344.02C190.604 1244.86 438.198 1149.32 811.406 1073.96Z" fill="white"/>
<path opacity="0.16" d="M819.031 1084.68C1104.36 1022.9 1331.66 926.067 1512.54 811.338C1825.9 612.57 1999.74 360.974 2096.26 148.404L2097.76 151.604C2000.86 364.068 1826.51 615.292 1513.65 813.738C1332.53 928.628 1105.1 1025.89 819.39 1087.56C446.651 1168.15 200.42 1267.32 39.0599 1368.28L37.8164 1365.62C199.683 1264.33 446.039 1165.42 819.031 1084.68Z" fill="white"/>
<path opacity="0.16" d="M56.1182 1382.34C216.727 1280.47 460.32 1179.86 826.905 1095.23C1101.91 1031.72 1322.01 936.337 1498.32 824.5C1821.82 619.305 1997.61 359.216 2093.15 141.736L2094.77 145.203C1998.72 363.004 1822.43 622.72 1499.69 827.433C1323.12 939.431 1102.52 1035.13 827.388 1098.38C460.679 1182.74 217.464 1283.46 57.3616 1385.01C54.575 1386.78 52.0418 1388.38 49.2552 1390.15L48.0117 1387.48C50.7983 1385.72 53.3316 1384.11 56.1182 1382.34Z" fill="white"/>
<path opacity="0.16" d="M79.9984 1394.84C239.341 1293.77 478.521 1192.85 834.149 1105.84C1098.69 1041.01 1311.71 947.356 1483.72 838.251C1817.36 626.628 1995.1 358.047 2089.92 134.803L2091.54 138.269C1996.33 361.408 1818.47 629.722 1485.09 841.184C1313.08 950.289 1099.55 1044.27 834.757 1109.25C479.382 1196.1 240.331 1296.59 81.2419 1397.5C73.6421 1402.33 66.2956 1406.99 59.3268 1411.75L58.0833 1409.08C65.4298 1404.42 72.6519 1399.5 79.9984 1394.84Z" fill="white"/>
<path opacity="0.16" d="M104.763 1407.12C262.839 1306.85 497.225 1206.21 842.149 1116.66C1096.1 1050.95 1302.18 958.587 1469.38 852.534C1813.9 634.003 1993.34 356.395 2086.81 128.136L2088.43 131.603C1994.45 360.184 1814.38 637.151 1470.62 855.201C1303.17 961.414 1096.72 1053.67 842.508 1119.54C497.837 1208.93 263.83 1309.68 106.007 1409.79C93.3406 1417.82 81.3052 1425.8 69.6476 1433.88L68.4041 1431.22C79.9374 1422.87 92.0971 1415.15 104.763 1407.12Z" fill="white"/>
<path opacity="0.16" d="M129.787 1418.54C286.596 1319.08 516.187 1218.72 849.647 1127.11C1093.01 1060.51 1292.14 970.139 1454.52 867.14C1810.19 641.538 1991.08 355.066 2083.58 121.203L2085.2 124.669C1992.44 358.693 1810.68 644.687 1455.77 869.807C1293.13 972.967 1094 1063.34 850.131 1130.26C516.799 1221.44 287.586 1321.91 131.03 1421.21C113.044 1432.62 95.8134 1444.24 79.7202 1455.49L78.4767 1452.82C94.8233 1441.41 111.801 1429.95 129.787 1418.54Z" fill="white"/>
<path opacity="0.16" d="M155.57 1429.49C310.606 1331.15 535.024 1230.96 857.27 1137.82C1090.17 1070.61 1281.72 982.28 1439.54 882.173C1806.61 649.34 1989.33 353.415 2080.22 114.003L2081.84 117.47C1990.31 356.936 1807.09 652.489 1440.78 884.84C1282.96 984.947 1091.16 1073.43 858.006 1140.81C536.014 1233.78 311.596 1333.98 156.813 1432.16C132.747 1447.42 110.574 1462.52 90.0409 1477.62L88.7974 1474.95C109.584 1459.69 131.757 1444.59 155.57 1429.49Z" fill="white"/>
<path opacity="0.16" d="M181.989 1439.68C335.505 1342.31 554.369 1242.88 865.146 1148.38C1087.45 1080.97 1271.67 994.526 1424.43 897.633C1802.9 657.569 1987.06 352.778 2076.61 107.657C2076.74 107.23 2076.74 107.23 2076.87 106.802L2078.48 110.269C1988.3 355.445 1803.76 660.13 1425.55 900.033C1272.54 997.087 1088.19 1083.26 865.634 1150.83C555.11 1245.17 336.246 1344.6 183.237 1441.66C153.091 1460.78 125.594 1479.95 100.242 1498.79L98.999 1496.13C124.221 1477.71 151.843 1458.81 181.989 1439.68Z" fill="white"/>
<path opacity="0.16" d="M209.045 1449.13C360.535 1353.04 574.097 1254.21 872.77 1159.09C1084.61 1091.76 1261.37 1007.63 1409.06 913.948C1795.38 668.903 1981.22 358.557 2070.29 109.592C2071.45 106.44 2072.6 103.288 2073.63 99.869L2075.37 103.602C1986.8 354.327 1800.68 668.998 1410.3 916.614C1262.61 1010.29 1085.6 1094.58 873.507 1162.08C574.834 1257.19 361.525 1355.87 210.289 1451.8C173.303 1475.26 140.481 1498.49 110.436 1521.35L109.193 1518.69C139.113 1495.56 172.059 1472.59 209.045 1449.13Z" fill="white"/>
<path opacity="0.16" d="M236.732 1457.83C385.942 1363.18 593.696 1265.27 880.389 1169.81C1081.76 1102.55 1250.93 1021.16 1393.3 930.85C1787.73 680.663 1975 364.922 2063.97 111.527C2066.03 105.383 2068.09 99.2396 2070.15 93.096L2071.89 96.8294C1985.04 353.37 1797.59 677.867 1394.29 933.677C1251.67 1024.14 1082.37 1105.96 880.62 1173.11C593.926 1268.58 386.55 1366.6 237.594 1461.08C193.515 1489.04 154.608 1516.83 120.248 1543.81L119.004 1541.14C154 1513.41 192.654 1485.79 236.732 1457.83Z" fill="white"/>
<path opacity="0.16" d="M265.434 1465.88C412.364 1372.69 613.803 1276.01 888.263 1180.36C1079.16 1113.87 1240.5 1034.68 1377.55 947.753C1780.34 692.263 1969.53 370.806 2058.03 112.874C2061.24 103.578 2064.21 94.4431 2067.17 85.3079L2068.91 89.0413C1983.79 351.397 1795.01 686.414 1378.79 950.419C1241.74 1037.35 1079.77 1116.59 888.876 1183.08C614.416 1278.73 413.354 1375.51 266.677 1468.55C214.999 1501.33 170.008 1533.67 131.074 1565.62L129.83 1562.95C168.764 1531 213.755 1498.66 265.434 1465.88Z" fill="white"/>
<path opacity="0.16" d="M294.65 1472.92C438.793 1381.49 633.665 1286.22 895.763 1190.81C1075.93 1125.25 1229.94 1048.64 1361.16 965.404C1772.57 704.451 1963.56 377.011 2051.71 114.809C2055.83 102.521 2059.95 90.2338 2063.44 78.0011L2065.3 82.0012C1982.16 350.012 1792.56 695.227 1362.41 968.071C1230.93 1051.47 1076.67 1128.24 896.5 1193.8C634.655 1289.05 440.037 1384.16 296.147 1475.43C236.109 1513.51 184.904 1550.83 141.525 1587.33L140.282 1584.66C183.661 1548.16 234.865 1510.84 294.65 1472.92Z" fill="white"/>
<path opacity="0.16" d="M325.006 1478.89C466.109 1389.39 654.284 1295.95 903.385 1201.52C1072.95 1137.16 1219.12 1063.45 1344.77 983.75C1765.29 717.012 1958.1 383.589 2045.77 116.85C2050.92 101.144 2055.56 85.7592 2060.08 70.8016L2061.82 74.535C1980.78 348.467 1790.35 704.575 1346.01 986.417C1220.11 1066.28 1073.94 1139.99 904.121 1204.51C655.021 1298.93 467.1 1392.22 326.25 1481.56C257.345 1525.26 199.798 1567.99 151.468 1609.35L150.224 1606.69C198.555 1565.32 256.102 1522.6 325.006 1478.89Z" fill="white"/>
<path opacity="0.16" d="M356.376 1484.22C494.185 1396.81 675.032 1305.25 911.006 1212.24C1069.96 1149.77 1207.92 1078.85 1327.74 1002.84C1757.64 730.161 1952.5 390.594 2039.7 119.318C2045.88 100.194 2051.3 81.5505 2056.59 63.3348L2058.34 67.0682C1979.66 346.761 1788.14 713.922 1328.86 1005.24C1209.04 1081.25 1070.71 1152.06 911.619 1214.96C675.645 1307.97 495.051 1399.37 357.495 1486.62C278.964 1536.43 214.568 1584.88 161.788 1631.49L160.544 1628.82C213.448 1582.48 277.844 1534.03 356.376 1484.22Z" fill="white"/>
<path opacity="0.16" d="M388.764 1488.21C522.774 1403.21 695.911 1314.12 918.882 1222.79C1067.11 1161.94 1197.09 1094.35 1310.84 1022.21C1750.61 743.256 1947.28 397.706 2034.13 121.466C2041.1 99.0826 2047.55 77.0209 2053.24 55.441L2055.11 59.4411C1978.79 344.895 1786.56 723.909 1312.08 1024.87C1198.34 1097.02 1068.1 1164.77 919.619 1225.78C696.901 1316.95 524.018 1405.87 390.008 1490.88C301.09 1547.28 229.716 1601.88 172.233 1653.89L170.99 1651.22C228.348 1598.94 300.1 1544.45 388.764 1488.21Z" fill="white"/>
<path opacity="0.16" d="M422.295 1491.13C552.252 1408.7 717.171 1322.4 926.505 1233.51C1064.25 1174.81 1186.01 1110.71 1293.42 1042.58C1743.33 757.204 1942.19 405.083 2028.57 124.307C2036.43 98.2379 2043.67 72.9179 2049.89 48.2406L2051.75 52.2407C1977.91 343.722 1785.11 734.162 1294.67 1045.25C1187.25 1113.38 1065.36 1177.91 927.495 1236.33C718.415 1325.07 553.495 1411.36 423.792 1493.63C323.728 1557.11 244.869 1618.18 182.808 1675.86L181.564 1673.2C243.501 1615.25 322.484 1554.44 422.295 1491.13Z" fill="white"/>
<path opacity="0.16" d="M457.22 1492.82C582.363 1413.44 738.812 1330.1 934.126 1244.22C1061.26 1188.11 1174.42 1127.39 1275.24 1063.44C1735.54 771.475 1936.58 412.783 2022.62 127.042C2031.52 97.5543 2039.28 68.4427 2045.9 40.4012L2047.77 44.4013C1976.41 341.91 1783.4 744.575 1276.49 1066.11C1175.66 1130.06 1062.25 1190.94 934.863 1247.21C739.927 1333.19 583.353 1416.27 458.21 1495.64C346.239 1566.67 259.389 1634.54 192.745 1698.58L191.502 1695.92C258.399 1631.71 345.249 1563.84 457.22 1492.82Z" fill="white"/>
<path opacity="0.16" d="M493.419 1493.01C613.243 1417 760.84 1337.21 941.626 1254.67C1058.27 1201.41 1162.71 1144.5 1256.94 1084.72C1728.13 785.85 1931.49 420.16 2017.18 129.455C2027.12 95.8543 2035.41 63.6452 2042.17 32.4003L2044.16 36.667C2037.28 66.9513 2029.25 98.3055 2019.95 130.463C1934 422.023 1730.26 788.302 1258.31 1087.66C1164.07 1147.43 1059.39 1204.51 942.741 1257.76C761.954 1340.3 614.611 1419.94 494.787 1495.94C369.644 1575.32 274.797 1650.69 203.446 1720.82L202.202 1718.16C273.683 1647.59 368.529 1572.23 493.419 1493.01Z" fill="white"/>
<path opacity="0.16" d="M531.264 1491.81C645.261 1419.5 782.992 1343.89 949.5 1265.22C1055.53 1215.25 1151.23 1162.14 1238.38 1106.87C1720.97 800.761 1926.77 428.339 2011.99 132.403C2022.83 95.1166 2031.53 58.8493 2038.82 24.5069L2040.81 28.7736C2033.77 62.2614 2025.09 97.1404 2014.76 133.411C1928.9 430.096 1722.59 803.533 1239.49 1109.96C1152.35 1165.24 1056.26 1218.23 950.361 1268.48C784.106 1346.98 646.375 1422.59 532.632 1494.74C393.302 1583.12 289.953 1666.3 213.889 1743.22L212.646 1740.56C288.839 1663.2 392.187 1580.03 531.264 1491.81Z" fill="white"/>
<path opacity="0.16" d="M570.759 1489.22C678.17 1421.09 805.781 1349.82 957.122 1275.94C1052.28 1229.4 1139.51 1180.64 1219.05 1130.18C1713.29 816.686 1921.67 437.104 2006.42 135.938C2018.04 94.6993 2027.27 54.6406 2034.84 16.6674L2036.82 20.9341C2029.51 58.0526 2020.55 96.5627 2009.06 136.68C1923.93 438.434 1715.3 818.87 1220.3 1132.85C1140.5 1183.47 1053.27 1232.23 958.113 1278.76C806.771 1352.65 679.413 1423.75 572.002 1491.88C417.473 1589.9 304.986 1681.64 224.21 1765.36L222.967 1762.69C303.871 1678.55 416.483 1587.08 570.759 1489.22Z" fill="white"/>
<path opacity="0.16" d="M612.033 1484.81C711.844 1421.5 828.701 1355.32 964.746 1286.65C1049.28 1244.09 1127.4 1199.72 1199.6 1153.93C1706 832.717 1916.82 445.71 2001.35 139.151C2013.64 93.6941 2023.39 49.844 2030.98 8.40051L2032.97 12.6673C2025.51 52.9893 2016.15 95.5575 2003.87 139.626C1919.33 446.879 1707.62 834.795 1200.72 1156.33C1128.52 1202.12 1050.4 1246.49 965.612 1289.21C829.567 1357.88 712.963 1423.9 613.152 1487.21C441.903 1595.83 320.025 1696.29 234.532 1787.49L233.289 1784.82C319.159 1693.73 441.037 1593.27 612.033 1484.81Z" fill="white"/>
<path opacity="0.16" d="M655.337 1478.42C747.042 1420.25 852.13 1359.81 972.368 1297.37C1046.28 1258.78 1115.16 1219.23 1179.25 1178.58C1698.32 849.336 1911.96 455.009 1996.16 142.792C2009.73 93.0615 2019.64 45.3137 2027.25 0.400263L2029.24 4.66701C2021.76 48.4592 2011.86 94.8188 1998.8 143.534C1914.6 456.445 1700.45 851.787 1180.5 1181.25C1116.15 1222.06 1047.4 1261.87 973.358 1300.19C853.121 1362.64 748.032 1423.08 656.581 1481.08C467.092 1601.28 335.311 1711.47 245.101 1810.16L243.858 1807.49C334.32 1708.65 466.102 1598.45 655.337 1478.42Z" fill="white"/>
</svg>
