<svg width="24" height="25" viewBox="0 0 24 25" fill="none" xmlns="http://www.w3.org/2000/svg">
<g clip-path="url(#clip0_310_1996)">
<path d="M16.9318 8.03197C17.3227 7.64108 17.9567 7.64108 18.3476 8.03197C18.7385 8.423 18.7385 9.05704 18.3476 9.44793L10.8282 16.9676C10.4372 17.3585 9.80312 17.3585 9.41223 16.9676L5.65238 13.2078C5.26149 12.8169 5.26149 12.1828 5.65238 11.792C6.04341 11.4009 6.67745 11.4009 7.06835 11.792L10.1202 14.8438L16.9318 8.03197ZM11.9999 0.5C15.3132 0.5 18.3135 1.84337 20.4851 4.01495C22.6566 6.18639 24 9.18684 24 12.4999C24 15.8136 22.6568 18.8135 20.4851 20.9851C18.3135 23.1566 15.3132 24.5 11.9999 24.5C8.68644 24.5 5.68639 23.1568 3.51495 20.9851C1.3431 18.8135 0 15.8136 0 12.4999C0 9.18684 1.34337 6.18639 3.51495 4.01495C5.68639 1.8431 8.68644 0.5 11.9999 0.5ZM19.0692 5.43077C17.2602 3.62189 14.7608 2.50291 11.9999 2.50291C9.23898 2.50291 6.73952 3.62189 4.93077 5.43077C3.12189 7.23966 2.00291 9.73925 2.00291 12.4999C2.00291 15.261 3.12189 17.7605 4.93077 19.5692C6.73952 21.3781 9.23898 22.497 11.9999 22.497C14.7608 22.497 17.2602 21.3781 19.0692 19.5692C20.8781 17.7605 21.997 15.261 21.997 12.4999C21.997 9.73925 20.8781 7.23966 19.0692 5.43077Z" fill="white"/>
</g>
<defs>
<clipPath id="clip0_310_1996">
<rect width="24" height="24" fill="white" transform="translate(0 0.5)"/>
</clipPath>
</defs>
</svg>
