<svg width="36" height="47" viewBox="0 0 36 47" fill="none" xmlns="http://www.w3.org/2000/svg">
<path d="M25.8061 5.26953H35.596L35.606 24.6375V46.3856H0V5.26953H9.7899" stroke="#162960" stroke-width="1.5" stroke-linecap="round" stroke-linejoin="round"/>
<path d="M31.0549 9.7207L31.0599 41.6831L4.5625 41.6882V9.7207" stroke="#162960" stroke-width="1.5" stroke-linecap="round" stroke-linejoin="round"/>
<path d="M22.8474 3.63563H21.4C20.9533 2.05473 19.5109 0.893555 17.799 0.893555C16.0871 0.893555 14.6447 2.05221 14.198 3.63563H12.7506C10.809 3.63563 9.23188 5.22156 9.23438 7.17947V9.72048H26.3636V7.17947C26.3636 5.22156 24.7889 3.63563 22.8449 3.63563H22.8474Z" stroke="#162960" stroke-width="1.5" stroke-linecap="round" stroke-linejoin="round"/>
<path d="M16.1523 18.6982H26.6285" stroke="#162960" stroke-width="1.5" stroke-linecap="round" stroke-linejoin="round"/>
<path d="M8.99219 18.7159L10.7041 20.4426L13.3943 16.9565" stroke="#162960" stroke-width="1.5" stroke-linecap="round" stroke-linejoin="round"/>
<path d="M16.1523 25.5474H26.6285" stroke="#162960" stroke-width="1.5" stroke-linecap="round" stroke-linejoin="round"/>
<path d="M8.99219 25.565L10.7041 27.2892L13.3943 23.8057" stroke="#162960" stroke-width="1.5" stroke-linecap="round" stroke-linejoin="round"/>
<path d="M26.6285 32.396H16.1523" stroke="#162960" stroke-width="1.5" stroke-linecap="round" stroke-linejoin="round"/>
<path d="M8.99219 32.4137L10.7041 34.1379L13.3943 30.6519" stroke="#162960" stroke-width="1.5" stroke-linecap="round" stroke-linejoin="round"/>
</svg>
