<svg width="37" height="32" viewBox="0 0 37 32" fill="none" xmlns="http://www.w3.org/2000/svg">
<path d="M5.41602 5.72388C5.41602 8.88607 7.80268 11.4497 10.7493 11.4497C13.696 11.4497 16.0827 8.88607 16.0827 5.72388C16.0827 2.56169 13.696 -0.00195312 10.7493 -0.00195312C7.80268 -0.00195312 5.41602 2.56169 5.41602 5.72388Z" stroke="#162960" stroke-width="1.5" stroke-linecap="round" stroke-linejoin="round"/>
<path d="M14.3227 30.3222L20.1173 19.8107H36.7627L30.168 31.8345H3.41867C1.53067 31.8345 0 30.3116 0 28.4366V20.1233C0 16.9796 2.56533 14.4292 5.73067 14.4292H13.352C15.8373 14.4292 17.9493 16.0023 18.7413 18.1899" stroke="#162960" stroke-width="1.5" stroke-linecap="round" stroke-linejoin="round"/>
<path d="M4.74414 20.8013V27.2792H13.5681" stroke="#162960" stroke-width="1.5" stroke-linecap="round" stroke-linejoin="round"/>
</svg>
