<svg width="2367" height="2013" viewBox="0 0 2367 2013" fill="none" xmlns="http://www.w3.org/2000/svg">
<g opacity="0.5">
<path opacity="0.08" d="M1304.24 931.849C1184.11 1393.67 864.74 1679.53 610.906 1840.53C494.376 1914.45 391.77 1961.91 328.278 1988.36L327.034 1985.69C390.398 1959.67 492.879 1911.94 609.663 1837.87C863.243 1677.02 1181.85 1391.65 1301.6 931.107C1401.92 545.771 1660.5 297.095 1905.21 141.873C1955.88 109.736 2006.14 81.6574 2054.1 57.1068L2055.35 59.7735C2007.38 84.3241 1957.37 112.242 1906.46 144.54C1662.12 299.868 1404.17 547.795 1304.24 931.849Z" fill="white"/>
<path opacity="0.1238" d="M1305.78 946.42C1186.93 1368.04 908.216 1628.45 666.289 1781.91C520.626 1874.3 388.594 1927.64 312.362 1954.23L311.118 1951.56C386.844 1925.3 519.383 1871.64 665.046 1779.24C906.466 1626.11 1184.42 1366.18 1303.14 945.678C1410.36 565.293 1663.49 321.113 1903.39 168.944C1958.11 134.236 2012.42 104.28 2063.8 78.6013L2065.04 81.268C2013.66 106.947 1959.35 136.903 1904.64 171.611C1665.24 323.458 1412.75 566.89 1305.78 946.42Z" fill="white"/>
<path opacity="0.1676" d="M1307.07 961.152C1189.84 1348.23 942.671 1587.59 714.424 1732.37C543.682 1840.67 383.636 1895.89 296.696 1920.63L295.452 1917.96C382.139 1893.38 542.185 1838.17 713.18 1729.71C940.921 1585.25 1187.45 1346.63 1304.43 960.41C1418.56 584.281 1666.61 344.702 1901.7 195.587C1960.47 158.308 2018.58 126.636 2073.62 99.6678L2074.87 102.335C2019.95 128.875 1961.97 160.814 1902.95 198.253C1668.36 347.048 1420.7 586.039 1307.07 961.152Z" fill="white"/>
<path opacity="0.2114" d="M1308.61 975.723C1192.71 1333.28 970.514 1554.38 756.2 1690.32C563.671 1812.44 377.405 1865.63 280.903 1886.76L279.535 1883.83C375.784 1862.86 562.05 1809.67 754.832 1687.39C968.64 1551.77 1190.08 1331.15 1305.85 974.715C1426.51 603.431 1669.99 368.132 1900.52 221.909C1963.59 181.898 2025.62 148.776 2083.69 121.269L2084.94 123.935C2026.61 151.604 1964.59 184.725 1901.76 224.575C1671.49 370.638 1428.64 605.188 1308.61 975.723Z" fill="white"/>
<path opacity="0.2552" d="M1310.03 990.722C1195.69 1322.06 993.521 1527.7 792.38 1655.28C580.598 1789.61 370.281 1836.98 265.36 1853.42L263.992 1850.49C368.406 1834.37 579.102 1787.11 791.136 1652.61C991.518 1525.51 1193.3 1320.46 1307.38 989.98C1434.2 622.74 1673.11 391.722 1899.08 248.391C1966.21 205.809 2032.03 170.972 2093.64 142.602L2094.89 145.269C2033.27 173.638 1967.45 208.476 1900.32 251.058C1674.74 393.801 1436.58 624.337 1310.03 990.722Z" fill="white"/>
<path opacity="0.299" d="M1311.57 1005.29C1198.65 1313.62 1012.84 1505.77 824.112 1625.48C595.358 1770.58 362.269 1809.23 249.822 1819.4L248.454 1816.46C360.27 1806.35 593.861 1768.07 822.868 1622.81C1011.09 1503.42 1196.51 1311.86 1309.18 1004.39C1442.02 641.622 1676.62 414.724 1898.28 274.124C1969.46 228.972 2039.2 192.685 2103.84 163.775L2105.09 166.442C2040.44 195.351 1970.71 231.639 1899.52 276.791C1677.99 416.963 1443.9 643.54 1311.57 1005.29Z" fill="white"/>
<path opacity="0.3429" d="M1312.86 1020.02C1201.59 1307.95 1028.98 1488.28 851.647 1600.76C607.44 1755.66 353.492 1782.67 234.155 1785.8L232.787 1782.86C351.24 1779.95 605.943 1753.15 850.403 1598.09C1027.48 1485.77 1199.33 1305.93 1310.35 1018.86C1448.7 660.881 1679.49 437.781 1896.84 299.913C1972.08 252.19 2045.86 214.719 2113.54 185.269L2114.78 187.936C2047.11 217.386 1973.33 254.856 1898.09 302.58C1681.24 440.126 1451.21 662.744 1312.86 1020.02Z" fill="white"/>
<path opacity="0.3867" d="M1314.15 1034.76C1204.13 1304.26 1043.07 1474.15 875.62 1580.37C617.226 1744.27 343.824 1757.01 217.98 1752.52L216.487 1749.32C341.07 1753.92 615.476 1741.92 874.376 1577.7C1041.32 1471.81 1201.75 1302.67 1311.38 1033.75C1455.38 680.139 1682.36 460.838 1895.66 325.541C1974.95 275.246 2052.4 236.487 2123.23 206.764L2124.48 209.43C2053.9 238.993 1976.45 277.752 1896.91 328.207C1684.36 463.022 1458.15 681.842 1314.15 1034.76Z" fill="white"/>
<path opacity="0.4305" d="M1315.69 1049.33C1207.3 1302.6 1055.88 1462.92 897.553 1563.34C625.863 1735.33 334.029 1731.78 202.565 1718.76L201.073 1715.56C331.275 1728.68 624.113 1732.99 896.186 1560.41C1054.01 1460.3 1205.04 1300.58 1313.05 1047.89C1462.45 698.81 1685.87 483.146 1895.12 350.42C1978.72 297.394 2059.96 257.612 2133.43 227.937L2134.68 230.604C2061.2 260.279 1979.96 300.061 1896.36 353.087C1687.49 485.919 1464.83 701.101 1315.69 1049.33Z" fill="white"/>
<path opacity="0.4743" d="M1316.98 1064.06C1210.07 1302.22 1066.91 1454.19 916.69 1549.48C632.711 1729.61 323.721 1707.56 187.021 1685.42L185.405 1681.95C186.16 1682.17 186.915 1682.38 187.924 1682.43C324.246 1704.46 632.481 1726.3 915.447 1546.81C1065.16 1451.85 1207.94 1300.47 1314.46 1062.89C1469 718.495 1688.87 506.469 1894.57 375.992C1982.22 320.395 2067.25 279.592 2143.63 249.803L2144.87 252.47C2068.49 282.258 1983.46 323.062 1895.81 378.659C1690.62 508.814 1471.13 720.252 1316.98 1064.06Z" fill="white"/>
<path opacity="0.5181" d="M932.801 1535.46C1075.17 1445.15 1210.96 1301.31 1316.01 1077.46C1475.3 737.649 1692.12 528.939 1894.02 400.873C1985.98 342.544 2074.93 300.985 2153.7 271.405L2154.94 274.072C2076.17 303.651 1987.22 345.211 1895.27 403.539C1693.87 531.284 1477.44 739.406 1318.52 1078.63C1213.22 1303.34 1076.92 1447.5 934.045 1538.12C637.906 1725.97 313.031 1683.93 171.477 1652.09L169.736 1648.36C309.651 1680.2 636.156 1723.62 932.801 1535.46Z" fill="white"/>
<path opacity="0.5619" d="M1319.81 1093.36C1215.98 1305.73 1086.16 1442.67 949.872 1529.12C642.08 1724.35 302.214 1660.73 155.935 1618.75L154.194 1615.02C298.456 1656.9 640.076 1722.17 948.628 1526.46C1084.41 1440.33 1213.97 1303.55 1317.42 1091.77C1481.23 756.695 1695.25 551.14 1893.35 425.484C1989.62 364.424 2082.23 322.27 2163.65 292.738L2164.89 295.405C2083.34 324.67 1990.74 366.824 1894.47 427.885C1696.87 553.913 1483.49 758.719 1319.81 1093.36Z" fill="white"/>
<path opacity="0.6057" d="M1321.35 1107.93C1219.11 1308.93 1094.63 1439.72 964.422 1522.31C645.23 1724.78 291.014 1638.12 140.516 1585.69L138.651 1581.69C287.131 1634.02 642.973 1722.75 963.178 1519.65C1092.88 1437.37 1216.85 1306.91 1319.09 1106.6C1487.28 776.008 1698.38 574.037 1893.19 450.47C1994.01 386.517 2090.28 343.768 2174.22 314.712L2175.47 317.378C2091.65 346.007 1995.13 388.917 1894.31 452.87C1699.88 576.543 1489.29 778.193 1321.35 1107.93Z" fill="white"/>
<path opacity="0.6495" d="M1322.64 1122.67C1221.98 1312.98 1102.34 1437.94 977.447 1517.16C646.856 1726.85 279.555 1616.36 125.097 1552.62L123.107 1548.35C275.424 1611.73 644.977 1724.94 976.204 1514.49C1100.59 1435.6 1219.73 1310.96 1320.26 1121.07C1492.58 795.109 1701.13 596.133 1892.65 474.655C1997.78 407.97 2097.96 364.466 2184.04 336.472L2185.28 339.139C2099.21 367.132 1999.02 410.637 1893.89 477.321C1702.75 598.905 1494.71 797.56 1322.64 1122.67Z" fill="white"/>
<path opacity="0.6933" d="M1324.18 1137.24C1224.98 1318 1109.91 1437.29 989.831 1513.45C647.84 1730.38 268.096 1594.6 109.801 1519.82L107.688 1515.29C263.463 1589.6 645.708 1728.62 988.712 1511.05C1108.28 1435.21 1222.84 1316.24 1321.92 1135.91C1498.12 814.744 1704.13 618.762 1892.61 499.212C2002.55 429.475 2106.27 385.803 2194.61 358.446L2195.86 361.112C2107.51 388.47 2003.67 431.875 1893.73 501.613C1705.63 621.268 1500 816.662 1324.18 1137.24Z" fill="white"/>
<path opacity="0.7371" d="M1325.47 1151.97C1227.97 1323.7 1116.59 1438.23 1001.32 1511.34C648.186 1735.34 256.634 1573.54 94.5078 1487.02L92.2695 1482.22C251.752 1568 646.054 1733.58 1000.08 1508.68C1115.09 1435.73 1225.83 1321.94 1323.21 1150.64C1502.91 834.166 1706.76 641.285 1892.19 523.664C2006.7 451.034 2114.32 407.3 2204.68 380.74L2205.93 383.406C2115.44 409.7 2007.82 453.434 1893.31 526.064C1708.51 643.631 1505.04 835.923 1325.47 1151.97Z" fill="white"/>
<path opacity="0.781" d="M1327.02 1166.54C1231.08 1329.67 1123.52 1439.71 1012.31 1510.25C647.644 1741.21 244.665 1552.8 79.2141 1454.22L76.8516 1449.15C239.534 1546.72 645.258 1739.62 1010.81 1507.75C1121.51 1437.53 1228.69 1328.08 1324.76 1165.21C1507.96 853.428 1709.51 663.381 1891.91 547.688C2011.48 471.845 2122.64 427.943 2215 402.873L2216.25 405.54C2123.88 430.61 2012.72 474.511 1893.15 550.355C1711.26 665.727 1509.83 855.346 1327.02 1166.54Z" fill="white"/>
<path opacity="0.8248" d="M1328.31 1181.27C1233.81 1336.93 1129.55 1442.1 1022.14 1510.23C646.459 1748.53 233.197 1532.43 64.0436 1421.68L61.5566 1416.35C227.564 1525.98 644.074 1746.93 1021.02 1507.83C1127.93 1440.02 1231.93 1335.01 1326.04 1179.94C1512.49 873.012 1712.01 685.638 1891.62 571.713C2016.26 492.656 2131.08 448.854 2225.32 425.007L2226.69 427.941C2132.44 451.787 2017.5 495.322 1892.87 574.379C1713.76 687.984 1514.37 874.929 1328.31 1181.27Z" fill="white"/>
<path opacity="0.8686" d="M1329.85 1195.84C1236.91 1344.29 1135.71 1445.45 1031.85 1511.33C644.639 1756.59 221.471 1512.91 48.9973 1389.42L46.2617 1383.55C215.465 1505.67 642.254 1755 1030.6 1508.67C1133.96 1443.11 1234.91 1342.1 1327.46 1194.25C1516.78 892.061 1714.39 707.628 1891.46 595.309C2021.17 513.039 2139.76 469.603 2235.65 447.141L2237.01 450.074C2141.13 472.536 2022.66 515.545 1892.71 597.976C1716.14 709.974 1518.78 894.246 1329.85 1195.84Z" fill="white"/>
<path opacity="0.9124" d="M1331.14 1210.57C1239.89 1352.08 1141.49 1449.39 1040.92 1513.18C642.687 1765.78 209.746 1493.4 33.9518 1357.15L31.0918 1351.02C203.491 1485.62 639.794 1764.51 1039.67 1510.52C1139.74 1447.05 1237.88 1349.89 1329 1208.82C1521.19 911.378 1717.02 729.458 1891.31 618.906C2026.58 533.1 2148.71 490.191 2246.09 469.541L2247.46 472.475C2150.08 493.124 2027.83 535.767 1892.55 621.573C1718.52 731.964 1522.94 913.723 1331.14 1210.57Z" fill="white"/>
<path opacity="0.9562" d="M1332.43 1225.31C1242.73 1360.29 1147.01 1454.18 1049.47 1516.05C639.721 1775.61 198.017 1474.58 19.1555 1325.42L16.0469 1318.75C191.513 1466.26 636.828 1774.33 1048.48 1513.22C1145.51 1451.68 1240.85 1358.38 1330.29 1223.55C1524.72 930.91 1719.14 751.608 1890.9 642.664C2031.75 553.323 2157.52 511.206 2256.66 492.208L2258.03 495.142C2159.4 513.819 2033.24 555.829 1892.14 645.331C1720.64 754.114 1526.97 932.934 1332.43 1225.31Z" fill="white"/>
<path d="M1333.97 1239.88C1245.7 1368.78 1152.65 1459.24 1058.16 1519.18C636.749 1786.13 186.534 1456.29 4.35735 1293.68L1 1286.48C179.405 1447.34 633.727 1785.29 1056.91 1516.51C1151.15 1456.74 1243.82 1366.86 1331.84 1238.12C1528.5 950.281 1721.14 773.493 1890.87 665.834C2037.54 572.797 2167.23 531.313 2267.48 514.715L2268.85 517.648C2168.85 534.086 2039.42 575.409 1892.24 668.767C1722.64 775.999 1530.5 952.466 1333.97 1239.88Z" fill="white"/>
</g>
</svg>
