<svg width="44" height="45" viewBox="0 0 44 45" fill="none" xmlns="http://www.w3.org/2000/svg">
<path d="M19.7649 2.418V2.41798C19.7649 2.0216 20.0892 1.69812 20.4882 1.69812H23.6198C24.0187 1.69812 24.3431 2.02157 24.3431 2.41798V12.0259C24.3431 12.3854 24.6336 12.6759 24.9931 12.6759H27.6705C27.8103 12.6923 27.8889 12.7528 27.9216 12.819C27.9543 12.8851 27.9547 12.9834 27.8823 13.1035L22.2579 20.3668C22.1625 20.457 22.0956 20.4849 22.0427 20.4849C21.9899 20.4849 21.923 20.457 21.8276 20.3669L16.211 13.1C16.2109 13.0999 16.2108 13.0998 16.2107 13.0996C16.159 13.0311 16.1428 12.9739 16.1424 12.9292C16.142 12.8843 16.1575 12.8426 16.1856 12.805C16.2453 12.7248 16.3505 12.6777 16.4198 12.6777H19.1132C19.4726 12.6777 19.7632 12.3872 19.7632 12.0277C19.7632 12.0277 19.7632 12.0277 19.7632 12.0277L19.7649 2.418ZM15.1784 13.8951L20.802 21.1664C21.3904 21.9725 22.6938 21.9723 23.2838 21.1682L28.9145 13.8969C29.3205 13.4074 29.3224 12.7649 29.0719 12.2561C28.8213 11.7474 28.3107 11.3564 27.6746 11.3779H25.645L25.6433 2.41816C25.6433 2.41815 25.6433 2.41815 25.6433 2.41814C25.6433 1.30555 24.7337 0.4 23.6183 0.4H20.4867C19.3713 0.4 18.4616 1.30551 18.4616 2.41816V11.3779H16.4201C15.784 11.3564 15.2733 11.7469 15.0226 12.2552C14.7719 12.7635 14.7732 13.4056 15.1784 13.8951Z" fill="#162960" stroke="#162960" stroke-width="0.2"/>
<path d="M12.7202 19.3544H10.6889V10.3947C10.6889 9.28041 9.78101 8.37656 8.66392 8.37656H5.53403C4.41865 8.37656 3.509 9.28208 3.509 10.3947V19.3544H1.46912C0.833104 19.333 0.322419 19.7235 0.0716721 20.2318C-0.179075 20.7401 -0.177681 21.3821 0.227453 21.8717L5.84751 29.1429C6.43593 29.9491 7.73941 29.9489 8.32941 29.1448L13.9593 21.8744C14.24 21.5522 14.3476 21.2278 14.3314 20.9204C14.3153 20.6149 14.1775 20.339 13.9917 20.1101C13.8058 19.881 13.5677 19.6938 13.3398 19.5635C13.1151 19.435 12.8869 19.3544 12.7202 19.3544ZM12.9664 20.7957C12.9989 20.8616 12.999 20.96 12.9265 21.0803L7.30204 28.3436C7.20666 28.4338 7.13969 28.4616 7.08687 28.4616C7.03406 28.4616 6.9671 28.4338 6.87173 28.3437L1.25784 21.0821C1.18548 20.962 1.18585 20.8636 1.21853 20.7976C1.2513 20.7313 1.32983 20.6709 1.46971 20.6545L4.16081 20.6528C4.16084 20.6528 4.16086 20.6528 4.16088 20.6528C4.5203 20.6527 4.81082 20.3622 4.81082 20.0028V10.3948C4.81082 9.99842 5.13518 9.67494 5.53412 9.67494H8.664C9.06292 9.67494 9.3873 9.9984 9.3873 10.3948V20.0028C9.3873 20.3622 9.67785 20.6528 10.0373 20.6528H12.7147C12.8556 20.6692 12.9339 20.7297 12.9664 20.7957Z" fill="#162960" stroke="#162960" stroke-width="0.2"/>
<path d="M43.8517 21.8721L43.8598 21.8617L43.8649 21.8496C44.2562 20.9168 44.111 20.2847 43.765 19.8864C43.4275 19.4979 42.917 19.3544 42.6126 19.3544H40.5813V10.3947C40.5813 9.28041 39.6734 8.37656 38.5563 8.37656H35.4247C34.3093 8.37656 33.3996 9.28208 33.3996 10.3947V19.3544H31.3597C30.7237 19.333 30.213 19.7235 29.9623 20.2318C29.7116 20.7401 29.7129 21.3821 30.1181 21.8717L35.7381 29.1429C36.3266 29.9491 37.63 29.9489 38.22 29.1448L43.8517 21.8721ZM34.7032 10.3948V10.3948C34.7032 9.99838 35.0275 9.6749 35.4265 9.6749H38.5581C38.957 9.6749 39.2814 9.99836 39.2814 10.3948V20.0027C39.2814 20.3622 39.5719 20.6527 39.9314 20.6527H42.6088C42.7486 20.6691 42.8271 20.7296 42.8599 20.7958C42.8925 20.8618 42.8929 20.9602 42.8206 21.0803L37.1961 28.3436C37.1007 28.4338 37.0338 28.4616 36.9809 28.4616C36.9281 28.4616 36.8612 28.4338 36.7658 28.3437L31.1519 21.0821C31.0795 20.962 31.0799 20.8636 31.1126 20.7976C31.1454 20.7314 31.2239 20.6709 31.3637 20.6545H34.0514C34.4109 20.6545 34.7014 20.3639 34.7015 20.0045C34.7015 20.0045 34.7015 20.0045 34.7015 20.0045L34.7032 10.3948Z" fill="#162960" stroke="#162960" stroke-width="0.2"/>
<path d="M22.0411 26.8927C17.1374 26.8927 13.148 30.8644 13.148 35.7466C13.148 40.6287 17.1378 44.6005 22.0411 44.6005C26.9444 44.6005 30.9342 40.6287 30.9342 35.7466C30.9342 30.8644 26.9444 26.8927 22.0411 26.8927ZM22.0411 43.3C17.8557 43.3 14.4498 39.9102 14.4498 35.7461C14.4498 31.5805 17.8541 28.1922 22.0411 28.1922C26.2265 28.1922 29.6324 31.582 29.6324 35.7461C29.6324 39.9118 26.2263 43.3 22.0411 43.3Z" fill="#162960" stroke="#162960" stroke-width="0.2"/>
<path d="M21.7316 34.9863L21.7316 34.9868C21.7478 34.9884 21.7735 34.99 21.8076 34.9921C22.0599 35.0076 22.7684 35.0514 23.4464 35.3465C23.8328 35.5148 24.2151 35.7667 24.5008 36.1462C24.7874 36.5269 24.9721 37.0296 24.9721 37.6902C24.9721 39.083 23.974 40.2402 22.6861 40.4189V41.5987C22.6861 41.9581 22.3956 42.2487 22.0361 42.2487C21.6767 42.2487 21.3861 41.9581 21.3861 41.5987V40.399C20.5149 40.2545 19.7277 39.7677 19.216 39.0313L21.7316 34.9863ZM21.7316 34.9863H21.7216M21.7316 34.9863H21.7216M21.7216 34.9863C20.9637 34.9863 20.3211 34.3468 20.3211 33.5858C20.3211 32.8395 20.9627 32.2042 21.7216 32.2042H22.1977C22.7691 32.2042 23.3142 32.4482 23.6921 32.8752L23.6921 32.8752M21.7216 34.9863L23.6921 32.8752M23.6921 32.8752C23.9299 33.1435 24.3421 33.1678 24.6102 32.9301C24.8779 32.6928 24.9049 32.2825 24.6651 32.0138C24.1494 31.4316 23.4464 31.0567 22.6861 30.9427V29.6584C22.6861 29.299 22.3956 29.0084 22.0361 29.0084C21.6767 29.0084 21.3861 29.299 21.3861 29.6584V30.9268C20.0736 31.0975 19.0211 32.2435 19.0211 33.5927C19.0211 35.0399 20.234 36.2611 21.6818 36.2845C22.184 36.2965 22.6865 36.3749 23.0603 36.5863C23.2457 36.6913 23.3977 36.8279 23.5036 37.0044C23.6094 37.1806 23.6725 37.4019 23.6721 37.6814C23.6705 38.4821 23.0522 39.144 22.3386 39.144H21.9227C21.2678 39.144 20.6557 38.8247 20.2843 38.2897L20.2842 38.2896M23.6921 32.8752L20.2842 38.2896M20.2842 38.2896C20.0791 37.9952 19.6731 37.922 19.3784 38.1272M20.2842 38.2896L19.3784 38.1272M19.3784 38.1272C19.0841 38.3322 19.0108 38.7364 19.216 39.0312L19.3784 38.1272Z" fill="#162960" stroke="#162960" stroke-width="0.2"/>
</svg>
