<svg width="122" height="100" viewBox="0 0 122 100" fill="none" xmlns="http://www.w3.org/2000/svg">
<rect opacity="0.8" width="122" height="100" rx="6" fill="#AEDEFC"/>
<path d="M39.8275 41.0476L42.5664 41.3624C42.825 42.2848 43.1927 43.179 43.6601 44.029L41.9401 46.2076C41.6815 46.5382 41.7064 47.0104 42.0024 47.3095L45.1901 50.5302C45.4861 50.8293 45.9535 50.8545 46.2807 50.5932L48.44 48.8554C49.2782 49.3308 50.1632 49.7023 51.0792 49.9636L51.3908 52.7309C51.4375 53.1496 51.7896 53.4645 52.2072 53.4645H56.7128C57.1303 53.4645 57.4824 53.1465 57.5291 52.7278L57.8376 49.9604C58.7537 49.6991 59.6386 49.3276 60.4799 48.8522L62.6362 50.59C62.9633 50.8513 63.4307 50.8262 63.7268 50.5271L66.9144 47.3064C67.2104 47.0073 67.2353 46.535 66.9767 46.2045L65.2567 44.0259C65.7272 43.1758 66.0918 42.2848 66.3504 41.3593L69.0894 41.0444C69.5038 40.9972 69.8154 40.6415 69.8154 40.2196V35.6672C69.8154 35.2454 69.5038 34.8928 69.0894 34.8424L66.3504 34.5276C66.0918 33.602 65.7241 32.7079 65.2536 31.861L66.9736 29.6793C67.2322 29.3487 67.2073 28.8765 66.9113 28.5774L63.7237 25.3567C63.4276 25.0576 62.9602 25.0324 62.6331 25.2937L60.4768 27.0315C59.6417 26.5593 58.7569 26.1909 57.8345 25.9264L57.526 23.1591C57.4793 22.7404 57.1272 22.4224 56.7097 22.4224H52.204C51.7865 22.4224 51.4375 22.7372 51.3877 23.156L51.0761 25.9233C50.1538 26.1878 49.272 26.5593 48.4369 27.0284L46.2776 25.2905C45.9504 25.0292 45.483 25.0544 45.187 25.3535L41.9993 28.5742C41.7033 28.8733 41.6784 29.3455 41.937 29.6761L43.657 31.8579C43.1865 32.7048 42.8219 33.5989 42.5602 34.5245L39.8212 34.8393C39.4068 34.8865 39.0952 35.2423 39.0952 35.6641V40.2165C39.0952 40.6384 39.4068 40.991 39.8212 41.0413L39.8275 41.0476ZM40.7404 36.4102L43.3142 36.1142C43.6601 36.0733 43.9436 35.8183 44.0215 35.4783C44.2833 34.3354 44.7289 33.2462 45.3521 32.2356C45.5359 31.9365 45.5141 31.5556 45.2991 31.2816L43.6851 29.2321L45.8382 27.0566L47.8667 28.6874C48.1378 28.9047 48.5179 28.9267 48.8108 28.7409C49.8017 28.1176 50.883 27.6643 52.0233 27.3935C52.3599 27.3148 52.6123 27.0283 52.6528 26.6819L52.9457 24.0814H55.9868L56.2766 26.6788C56.314 27.0283 56.5664 27.3116 56.906 27.3935C58.0465 27.6611 59.1277 28.1144 60.1217 28.741C60.4177 28.9267 60.7947 28.9047 61.0658 28.6843L63.0912 27.0535L65.2443 29.229L63.6303 31.2785C63.4153 31.5524 63.3935 31.9365 63.5773 32.2324C64.2005 33.2399 64.6492 34.3324 64.9078 35.4751C64.9857 35.8183 65.2693 36.0733 65.6152 36.1111L68.189 36.407V39.4798L65.6152 39.7757C65.2693 39.8166 64.9857 40.0716 64.9078 40.4116C64.6461 41.5514 64.1974 42.6438 63.5742 43.6544C63.3903 43.9534 63.4122 44.3344 63.6303 44.6083L65.2443 46.6547L63.0943 48.827L61.0689 47.1962C60.7978 46.979 60.4208 46.9538 60.1248 47.1396C59.1214 47.7692 58.0402 48.2226 56.9092 48.487C56.5695 48.5657 56.3171 48.8522 56.2797 49.2017L55.99 51.7991H52.9488L52.6559 49.1986C52.6154 48.8491 52.363 48.5626 52.0265 48.4839C50.8953 48.2194 49.8173 47.7692 48.8171 47.1396C48.521 46.9538 48.144 46.9759 47.8729 47.1931L45.8444 48.8239L43.6913 46.6484L45.3053 44.602C45.5203 44.3281 45.5422 43.9472 45.3614 43.6481C44.7382 42.6343 44.2895 41.5418 44.0278 40.4054C43.9499 40.0622 43.6663 39.8072 43.3205 39.7694L40.7466 39.4735V36.4007L40.7404 36.4102ZM83.1485 61.2757C84.0677 59.903 84.6067 58.247 84.6067 56.4683C84.6067 52.0071 81.229 48.3297 76.9197 47.9114V25.1051C76.9197 24.8847 76.8324 24.6738 76.6798 24.5196L68.4907 16.2456C68.338 16.0913 68.1293 16.0031 67.9112 16.0031L32.8195 16C32.3676 16 32 16.3715 32 16.828V76.8156C32 77.2721 32.3677 77.6435 32.8195 77.6435H69.0327C69.2197 79.3027 69.9675 80.8327 71.1765 82.004C72.5101 83.2948 74.252 84 76.0935 84C76.1465 84 76.1963 84 76.2493 83.9968C78.1469 83.9559 79.9168 83.1689 81.2317 81.7836C82.3223 80.6376 82.9891 79.1926 83.1636 77.6373H88.7069C89.4204 77.6373 90 77.0518 90 76.3308V68.6207C90 64.7073 86.9651 61.4993 83.1481 61.2694L83.1485 61.2757ZM82.9678 56.4683C82.9678 60.2934 79.8892 63.404 76.1033 63.404C72.3143 63.404 69.2326 60.2934 69.2326 56.4683C69.2326 52.64 72.3143 49.5263 76.1033 49.5263C79.8892 49.5263 82.9678 52.64 82.9678 56.4683ZM68.7307 18.8307L74.1213 24.2772H68.7307V18.8307ZM38.6772 64.5529H63.4181C62.6485 65.7209 62.1967 67.1219 62.1967 68.6267V69.5618H38.6778C38.226 69.5618 37.8583 69.9333 37.8583 70.3898C37.8583 70.8462 38.226 71.2177 38.6778 71.2177H62.1999V75.9874H33.6388V17.656H67.0889V25.1017C67.0889 25.5583 67.4566 25.9297 67.9084 25.9297H75.2776L75.2807 47.9107C71.0492 48.3231 67.7152 51.8775 67.5968 56.2314H38.6776C38.2257 56.2314 37.8581 56.6029 37.8581 57.0594C37.8581 57.5159 38.2258 57.8873 38.6776 57.8873H67.7093C67.9149 59.1246 68.3792 60.2768 69.0522 61.2749C67.4943 61.3693 66.064 61.9612 64.9205 62.8931L38.6783 62.8962C38.2265 62.8962 37.8588 63.2677 37.8588 63.7242C37.8588 64.1806 38.2265 64.5521 38.6783 64.5521L38.6772 64.5529ZM80.0474 80.6406C79.0348 81.7079 77.673 82.3124 76.2148 82.3439C74.7534 82.3753 73.3668 81.8307 72.3136 80.8075C71.2574 79.7844 70.6591 78.4054 70.6279 76.9289C70.5967 75.4523 71.1389 74.0513 72.1516 72.9841C73.1612 71.9168 74.5229 71.3155 75.9843 71.284H76.0996C77.5173 71.284 78.8572 71.8286 79.8854 72.8235C80.9417 73.8436 81.5369 75.2226 81.5681 76.6991C81.5992 78.1756 81.057 79.5765 80.0474 80.6406ZM88.3577 75.9844H83.1634C82.9765 74.3252 82.2286 72.7952 81.0228 71.6272C79.6517 70.2986 77.8507 69.5934 75.95 69.628C74.0493 69.6689 72.2793 70.4528 70.9676 71.8381C69.877 72.9841 69.2102 74.4291 69.0356 75.9844H63.8414V68.6237C63.8414 66.9488 64.558 65.4408 65.6985 64.3987C65.7421 64.3672 65.7826 64.3326 65.8169 64.2948C66.8046 63.4385 68.0884 62.919 69.4906 62.919H70.4877C71.9865 64.2507 73.9527 65.063 76.1027 65.063C78.2527 65.063 80.2157 64.2508 81.7145 62.919H82.7148C85.8307 62.919 88.364 65.4786 88.364 68.6268V75.9875L88.3577 75.9844ZM54.4625 45.1596C58.398 45.1596 61.6012 41.9232 61.6012 37.9469C61.6012 33.9675 58.398 30.7311 54.4625 30.7311C50.524 30.7311 47.3208 33.9675 47.3208 37.9469C47.3208 41.9232 50.524 45.1596 54.4625 45.1596ZM54.4625 32.39C57.4944 32.39 59.959 34.8834 59.959 37.9467C59.959 41.0099 57.4944 43.5002 54.4625 43.5002C51.4307 43.5002 48.9629 41.01 48.9629 37.9467C48.9629 34.8834 51.4308 32.39 54.4625 32.39ZM79.3622 74.1169C79.6988 74.4255 79.7237 74.9481 79.4183 75.2881L75.6947 79.4343C75.542 79.6044 75.3302 79.7019 75.1027 79.7051H75.0871C74.8659 79.7051 74.6571 79.6169 74.5013 79.4564L72.775 77.6808C72.4572 77.3534 72.4634 76.8307 72.7844 76.5096C73.1084 76.1885 73.6257 76.1948 73.9435 76.5191L75.059 77.6682L78.1967 74.1737C78.5021 73.8336 79.0193 73.8085 79.3559 74.117L79.3622 74.1169Z" fill="black"/>
</svg>
