<svg width="40" height="46" viewBox="0 0 40 46" fill="none" xmlns="http://www.w3.org/2000/svg">
<path d="M6.70175 45.3825H4.59088C1.80343 45.3825 -0.162998 42.625 0.718851 39.9545L3.59753 31.2375C4.32227 29.0448 5.98714 27.2968 8.12842 26.4816L15.6926 23.4175" stroke="#162960" stroke-width="1.5" stroke-linecap="round" stroke-linejoin="round"/>
<path d="M24.3066 23.4175L31.8708 26.4816C34.0146 27.2994 35.6795 29.0448 36.4017 31.2375L39.2803 39.9545C40.1622 42.625 38.1958 45.3825 35.4083 45.3825H33.2975" stroke="#162960" stroke-width="1.5" stroke-linecap="round" stroke-linejoin="round"/>
<path d="M16.5087 19.4282C16.4885 20.7903 16.2731 22.1294 15.6953 23.4174L20.0032 26.9671L24.3111 23.4174C23.7308 22.1294 23.5179 20.7929 23.4951 19.4308" stroke="#162960" stroke-width="1.5" stroke-linecap="round" stroke-linejoin="round"/>
<path d="M8.50586 29.9009L9.07095 45.3824H30.9297L31.4948 29.9009H8.50586Z" stroke="#162960" stroke-width="1.5" stroke-linecap="round" stroke-linejoin="round"/>
<path d="M10.5586 23.1825V10.4532C10.5586 4.62145 14.6587 0.404785 20.0005 0.404785C25.3422 0.404785 29.4398 4.62145 29.4398 10.4532V23.1825" stroke="#162960" stroke-width="1.5" stroke-linecap="round" stroke-linejoin="round"/>
<path d="M26.6318 10.4226V12.6664C26.6318 14.2892 26.1883 15.8941 25.3065 17.2511C23.966 19.3109 22.0832 21.0026 20.0002 21.0026C17.9172 21.0026 16.0344 19.3109 14.6964 17.2511C13.812 15.8915 13.3711 14.2892 13.3711 12.6664V10.2054C16.4804 10.1543 18.0135 7.00586 18.0135 7.00586" stroke="#162960" stroke-width="1.5" stroke-linecap="round" stroke-linejoin="round"/>
<path d="M17.4512 6.08301C17.4512 6.08301 19.6355 11.028 26.632 10.4223" stroke="#162960" stroke-width="1.5" stroke-linecap="round" stroke-linejoin="round"/>
</svg>
