<svg width="70" height="47" viewBox="0 0 70 47" fill="none" xmlns="http://www.w3.org/2000/svg">
<path d="M34.0907 16.9989C34.0907 7.61065 26.4808 0 17.0918 0C7.70275 0 0.888052 7.34838 0.092934 16.7033C-1.12097 30.9779 9.72343 42.9297 22.8891 46.7321C18.4015 44.0187 15.2709 39.2996 14.7489 33.8112C15.5174 33.9203 16.295 33.9977 17.0918 33.9977C26.4808 33.9977 34.0907 26.3879 34.0907 16.9989Z" fill="#16295E"/>
<path d="M69.9986 16.9989C69.9986 7.61065 62.3888 0 52.9989 0C43.6107 0 36.7951 7.34838 35.9992 16.7033C34.7853 30.9779 45.6297 42.9297 58.7962 46.7321C54.3085 44.0187 51.1788 39.2996 50.656 33.8112C51.4245 33.9203 52.2029 33.9977 52.9989 33.9977C62.3888 33.9977 69.9986 26.3879 69.9986 16.9989Z" fill="#16295E"/>
</svg>
