<svg width="82" height="55" viewBox="0 0 82 55" fill="none" xmlns="http://www.w3.org/2000/svg">
<path d="M7.97602 53.9271C8.06812 54.1834 8.2523 54.3996 8.50056 54.5117C8.6447 54.5838 8.79686 54.6158 8.95302 54.6158C9.06513 54.6158 9.17725 54.5958 9.28135 54.5638L18.1904 51.5287C18.723 51.3445 19.0113 50.7599 18.8271 50.2274L17.8621 47.3886L18.4066 47.1924C19.5959 46.7599 20.8892 46.7719 22.0543 47.2124L35.2477 52.2255C36.5891 52.738 37.9945 52.9822 39.3879 52.9822C41.3979 52.9822 43.3961 52.4577 45.1698 51.4247L79.8849 32.8417C81.895 31.6725 82.5917 29.0778 81.4545 27.0518C80.8499 25.9667 79.7928 25.2059 78.5636 24.9616C77.6707 24.7855 76.7577 24.9016 75.9289 25.278L48.6812 37.558C49.1016 34.9954 47.6242 32.4208 45.0935 31.5598L26.407 25.2575C24.8574 24.7329 23.1557 24.797 21.6422 25.4016L11.7281 29.4097L10.8992 26.9713C10.715 26.4387 10.1304 26.1504 9.59793 26.3346L0.688865 29.3697C0.432604 29.4618 0.216381 29.6459 0.104272 29.8942C-0.0198507 30.1384 -0.0278658 30.4187 0.0522198 30.675L7.97602 53.9271ZM22.3984 27.3078C23.4755 26.8753 24.6647 26.8353 25.7498 27.2037L44.4363 33.5061C46.1901 34.0987 47.131 36.0086 46.5465 37.7583C46.4023 38.1668 46.1861 38.5592 45.9018 38.8754C45.8818 38.8955 45.8618 38.9155 45.8417 38.9355C45.5735 39.2438 45.2371 39.5001 44.8567 39.6843C44.4363 39.8885 43.9758 40.0126 43.5034 40.0326C43.103 40.0526 42.6945 39.9926 42.2941 39.8564L32.8725 36.6772C32.34 36.493 31.7555 36.7813 31.5713 37.3218C31.3871 37.8544 31.6754 38.4389 32.2159 38.6231L41.6375 41.8024C42.2021 41.9866 42.7747 42.0907 43.3393 42.0907C43.4194 42.0907 43.5034 42.0907 43.5955 42.0787C44.3443 42.0466 45.093 41.8624 45.7777 41.5261C46.3223 41.2578 46.7828 40.9015 47.1912 40.4811L76.7852 27.135C77.2257 26.9308 77.6981 26.8667 78.1707 26.9708C78.8073 27.095 79.3599 27.4954 79.6681 28.048C80.2607 29.105 79.8924 30.4584 78.8874 31.051L44.1599 49.6422C41.6574 51.0878 38.6663 51.3319 35.9596 50.3069L22.7785 45.2938C21.1489 44.6692 19.343 44.6572 17.6934 45.2618L17.1929 45.446L12.384 31.3517L22.3984 27.3078ZM9.2768 28.6091L10.1377 31.1196C10.1377 31.1316 10.1377 31.1396 10.1497 31.1516C10.1497 31.1637 10.1617 31.1637 10.1617 31.1637L16.5562 49.9107L9.59711 52.2891L2.32975 30.9877L9.2768 28.6091Z" fill="black"/>
<path d="M65.6157 10.4345C68.4866 10.4345 70.833 8.0962 70.833 5.21727C70.833 2.33833 68.4946 0 65.6157 0C62.7368 0 60.3984 2.33833 60.3984 5.21727C60.3984 8.1002 62.7449 10.4345 65.6157 10.4345ZM65.6157 2.06198C67.3575 2.06198 68.7829 3.47541 68.7829 5.22916C68.7829 6.9829 67.3694 8.39633 65.6157 8.39633C63.862 8.39633 62.4485 6.9829 62.4485 5.22916C62.4485 3.47541 63.8739 2.06198 65.6157 2.06198Z" fill="black"/>
<path d="M38.5356 10.4345C41.4066 10.4345 43.7529 8.0962 43.7529 5.21727C43.7529 2.33833 41.4146 0 38.5356 0C35.6567 0 33.3184 2.33833 33.3184 5.21727C33.3184 8.1002 35.6648 10.4345 38.5356 10.4345ZM38.5356 2.06198C40.2774 2.06198 41.7028 3.47541 41.7028 5.22916C41.7028 6.9829 40.2894 8.39633 38.5356 8.39633C36.7939 8.39633 35.3684 6.9829 35.3684 5.22916C35.3684 3.47541 36.7899 2.06198 38.5356 2.06198Z" fill="black"/>
<path d="M28.9501 22.6746C28.9621 22.7266 28.9701 22.7867 28.9901 22.8387C29.0221 22.8988 29.0622 22.9509 29.1022 23.0029C29.1423 23.055 29.1623 23.115 29.2143 23.1551C29.2544 23.1951 29.3064 23.2151 29.3585 23.2472C29.4186 23.2872 29.4826 23.3393 29.5547 23.3713C29.5667 23.3713 29.5667 23.3833 29.5747 23.3833C30.7239 23.8037 32.0332 24.2121 33.5828 24.6526C36.3817 25.4094 39.3968 25.986 42.52 26.3744C43.9334 26.5586 45.471 26.7027 47.0606 26.8068C48.6902 26.9109 50.372 26.971 52.0617 26.971C53.7514 26.971 55.4332 26.9189 57.0548 26.8068C58.6524 26.7027 60.182 26.5626 61.6074 26.3864C64.7426 25.998 67.7457 25.4214 70.5566 24.6646C72.0421 24.2442 73.3555 23.8358 74.5647 23.3953C74.5767 23.3953 74.5767 23.3833 74.5847 23.3833C74.6568 23.3513 74.7168 23.3112 74.7809 23.2592C74.833 23.2271 74.885 23.2071 74.9251 23.1671C74.9771 23.127 75.0051 23.063 75.0372 23.0149C75.0772 22.9629 75.1173 22.9108 75.1493 22.8508C75.1693 22.7987 75.1813 22.7386 75.1893 22.6866C75.2094 22.6145 75.2294 22.5424 75.2294 22.4624C75.2294 22.4503 75.2414 22.4423 75.2414 22.4303V21.2931C75.2414 15.9837 70.9169 11.6594 65.6076 11.6594C64.1621 11.6594 62.7287 12.0077 61.4274 12.6324C60.9269 11.6193 60.2582 10.6743 59.4494 9.87356C57.4793 7.89554 54.8567 6.81042 52.0579 6.81042C47.9777 6.81042 44.4221 9.13676 42.7083 12.6324C41.4071 12.0077 39.9695 11.6594 38.5281 11.6594C35.9455 11.6594 33.527 12.6644 31.7212 14.4782C29.8954 16.304 28.9023 18.7225 28.9023 21.2851V22.4223V22.4423C28.9104 22.5184 28.9301 22.5905 28.9501 22.6746ZM65.6272 13.6934C69.8074 13.6934 73.2108 17.0969 73.2108 21.2771V21.6855C72.6182 21.8898 71.9896 22.094 71.325 22.2902V19.4192C71.325 18.8546 70.8645 18.3942 70.2999 18.3942C69.7353 18.3942 69.2749 18.8546 69.2749 19.4192V22.8548C67.1327 23.3993 64.8784 23.8398 62.532 24.1761V17.2371C62.532 17.0849 62.532 16.9288 62.52 16.8047L62.48 16.148C62.4199 15.5954 62.3158 15.0629 62.1717 14.5304C63.2287 13.9938 64.4179 13.6934 65.6272 13.6934ZM43.6892 17.241C43.6892 17.1489 43.6892 17.0448 43.7012 16.9127L43.7332 16.3681C44.1737 12.0718 47.7733 8.83242 52.0857 8.83242C54.332 8.83242 56.4421 9.70531 58.0198 11.303C59.3931 12.6643 60.2341 14.4182 60.4383 16.3161L60.4703 16.9407V17.241V24.4363C59.9698 24.4964 59.4773 24.5484 58.9527 24.5885V19.7996C58.9527 19.235 58.4922 18.7745 57.9277 18.7745C57.3631 18.7745 56.9026 19.235 56.9026 19.7996V24.7486C53.7874 24.9528 50.4641 24.9528 47.3289 24.7486V19.7996C47.3289 19.235 46.8684 18.7745 46.3039 18.7745C45.7393 18.7745 45.2788 19.235 45.2788 19.7996V24.5965C44.7343 24.5444 44.2017 24.4924 43.6892 24.4323L43.6892 17.241ZM30.9479 21.2811C30.9479 19.263 31.7367 17.3572 33.1742 15.9196C34.5996 14.4862 36.4936 13.6933 38.5237 13.6933C39.7249 13.6933 40.9221 13.9896 41.9872 14.5422C41.843 15.0948 41.7189 15.6593 41.6589 16.244L41.6268 16.7765C41.6148 16.9287 41.6148 17.0848 41.6148 17.237V24.176C39.2684 23.8477 37.0021 23.4072 34.86 22.8546V19.4191C34.86 18.8545 34.3995 18.3941 33.8349 18.3941C33.2704 18.3941 32.8099 18.8545 32.8099 19.4191V22.29C32.1332 22.0858 31.5166 21.8896 30.936 21.6854L30.94 21.281L30.9479 21.2811Z" fill="black"/>
</svg>
