<svg width="94" height="17" viewBox="0 0 94 17" fill="none" xmlns="http://www.w3.org/2000/svg">
<path d="M13.0548 16.532C12.4771 16.9441 8.77027 14.3321 8.06032 14.3264C7.35037 14.3207 3.6018 16.8726 3.03083 16.4513C2.45986 16.03 3.80218 11.7027 3.58826 11.0268C3.37435 10.3508 -0.214688 7.57958 0.0101317 6.90717C0.235001 6.23476 4.77144 6.1723 5.34916 5.76026C5.92687 5.34826 7.45733 1.08367 8.16733 1.08936C8.87723 1.0951 10.3386 5.38379 10.9095 5.80509C11.4805 6.22635 16.0154 6.36195 16.2294 7.03787C16.4433 7.71379 12.81 10.4268 12.5851 11.0993C12.3603 11.7717 13.6325 16.12 13.0548 16.532Z" fill="#FCB603"/>
<path d="M32.5721 16.1436C31.9673 16.5744 28.087 13.8439 27.3438 13.8379C26.6006 13.8319 22.6766 16.4996 22.0789 16.0592C21.4812 15.6188 22.8864 11.0951 22.6624 10.3885C22.4385 9.68185 18.6815 6.78482 18.9169 6.08189C19.1522 5.37895 23.901 5.31366 24.5058 4.88291C25.1105 4.45222 26.7126 -0.00594364 27.4558 5.94955e-06C28.1989 0.00600728 29.7287 4.48936 30.3263 4.92979C30.924 5.37016 35.6712 5.51191 35.8952 6.21852C36.1191 6.92512 32.3158 9.76132 32.0804 10.4642C31.845 11.1672 33.1768 15.7129 32.5721 16.1436Z" fill="#FCB603"/>
<path d="M52.2361 16.3686C51.6314 16.8051 47.751 14.0382 47.0079 14.0322C46.2647 14.0261 42.3407 16.7293 41.743 16.2831C41.1453 15.8368 42.5504 11.2528 42.3265 10.5368C42.1026 9.82079 38.3456 6.88518 38.5809 6.17289C38.8163 5.46059 43.5651 5.39443 44.1698 4.95795C44.7746 4.52151 46.3767 0.00398697 47.1199 0.0100158C47.863 0.016097 49.3927 4.55916 49.9904 5.00545C50.5881 5.45168 55.3353 5.59532 55.5592 6.31134C55.7832 7.02735 51.9798 9.90132 51.7444 10.6136C51.5091 11.3259 52.8409 15.9321 52.2361 16.3686Z" fill="#FCB603"/>
<path d="M71.1809 16.3686C70.608 16.8051 66.9319 14.0382 66.2278 14.0322C65.5238 14.0261 61.8063 16.7293 61.2401 16.2831C60.6738 15.8368 62.005 11.2528 61.7929 10.5368C61.5807 9.82079 58.0215 6.88518 58.2444 6.17289C58.4674 5.46059 62.9662 5.39443 63.5392 4.95795C64.1121 4.52151 65.6299 0.00398697 66.334 0.0100158C67.038 0.016097 68.4872 4.55916 69.0534 5.00545C69.6197 5.45168 74.1169 5.59532 74.3291 6.31134C74.5413 7.02735 70.9381 9.90132 70.7151 10.6136C70.4922 11.3259 71.7538 15.9321 71.1809 16.3686Z" fill="#FCB603"/>
<path d="M90.6658 16.3686C90.0611 16.8051 86.1807 14.0382 85.4376 14.0322C84.6944 14.0261 80.7704 16.7293 80.1727 16.2831C79.575 15.8368 80.9801 11.2528 80.7562 10.5368C80.5323 9.82079 76.7753 6.88518 77.0106 6.17289C77.246 5.46059 81.9948 5.39443 82.5995 4.95795C83.2043 4.52151 84.8063 0.00398697 85.5496 0.0100158C86.2927 0.016097 87.8224 4.55916 88.4201 5.00545C89.0178 5.45168 93.7649 5.59532 93.9889 6.31134C94.2128 7.02735 90.4095 9.90132 90.1741 10.6136C89.9388 11.3259 91.2706 15.9321 90.6658 16.3686Z" fill="#FCB603"/>
</svg>
