<svg width="60" height="68" viewBox="0 0 60 68" fill="none" xmlns="http://www.w3.org/2000/svg">
<path d="M52.7491 10.2406H48.173L47.6321 6.2502C47.3727 4.33446 46.3884 2.64737 44.863 1.47897C43.3377 0.310582 41.4331 -0.185772 39.5313 0.0623689L6.26134 4.52963C4.34559 4.7806 2.64737 5.7622 1.47897 7.29866C0.310582 8.82399 -0.185773 10.7286 0.0623689 12.6304L5.8263 55.5826C6.25853 58.8396 8.84355 61.3465 12.0253 61.7592C12.5021 65.2756 15.5193 68 19.1528 68H52.7269C56.6978 68 59.9298 64.7653 59.9298 60.797V17.4458C59.9521 13.4749 56.7175 10.2406 52.7491 10.2406ZM11.9607 17.4464V59.6733C9.85254 59.2522 8.16545 57.5205 7.87262 55.3147L2.1059 12.3626C1.92186 10.9989 2.27879 9.63816 3.1126 8.54501C3.94641 7.45186 5.15663 6.74919 6.52019 6.56516L39.8015 2.10904C40.0274 2.07557 40.2672 2.06442 40.4931 2.06442C41.6169 2.06442 42.6988 2.43251 43.6079 3.12409C44.701 3.95789 45.4038 5.16811 45.5878 6.53168L46.0842 10.2404H19.1748C15.1955 10.2404 11.9607 13.4753 11.9607 17.4464ZM57.8968 60.7976C57.8968 63.6308 55.5823 65.9453 52.7492 65.9453H19.1751C16.3419 65.9453 14.0386 63.6419 14.0275 60.8088V17.4468C14.0275 14.6136 16.342 12.2992 19.1751 12.2992H52.7492C55.5824 12.2992 57.8968 14.6137 57.8968 17.4468V60.7976Z" fill="black"/>
<path d="M35.9504 39.8356C36.4914 39.8356 37.0324 39.8021 37.5511 39.7269C41.2404 39.2305 44.528 37.0108 46.3545 33.7036C47.3389 31.9412 47.8576 29.939 47.8576 27.9173C47.8576 21.353 42.5147 16.0071 35.9395 16.0071C29.3753 16.0071 24.0293 21.35 24.0293 27.9173C24.0293 29.9613 24.548 31.9635 25.5324 33.7036C27.6433 37.4877 31.6336 39.8356 35.9504 39.8356ZM44.0314 33.5279C43.9227 33.6897 43.8056 33.8514 43.6857 34.0048C43.5462 34.1888 43.3817 34.3617 43.2311 34.5346C43.1001 34.674 42.9718 34.8162 42.8407 34.9557C42.679 35.1174 42.4949 35.268 42.3221 35.4213C42.1826 35.5413 42.0293 35.6695 41.8898 35.7783C41.7058 35.9177 41.4994 36.0488 41.307 36.1798C41.1564 36.2774 40.9947 36.3862 40.8302 36.4838C40.6238 36.6037 40.4091 36.7013 40.1916 36.8073C40.0299 36.8825 39.8681 36.969 39.7036 37.0331C39.4666 37.1307 39.2268 37.206 38.9897 37.2813C38.828 37.3343 38.6663 37.4012 38.5017 37.443C38.2312 37.5183 37.9496 37.563 37.6791 37.6159C37.5397 37.6382 37.3975 37.6801 37.2581 37.7024C36.837 37.7554 36.4048 37.7888 35.9698 37.7888C35.5375 37.7888 35.1053 37.7554 34.6814 37.7024C34.542 37.6801 34.4109 37.6494 34.2715 37.6271C33.9899 37.5741 33.7082 37.5295 33.4377 37.4542C33.276 37.4096 33.1254 37.3454 32.9609 37.3036C32.7127 37.2283 32.4729 37.153 32.2359 37.0554C32.0741 36.9913 31.9235 36.9048 31.759 36.8296C31.5331 36.7208 31.3156 36.612 31.0981 36.4949C30.9475 36.4085 30.7942 36.3109 30.6436 36.2133C30.4372 36.0822 30.2337 35.954 30.0385 35.8034C29.899 35.6946 29.7568 35.5775 29.6174 35.4576C29.4334 35.307 29.2493 35.1453 29.0764 34.9696C28.9454 34.8385 28.8282 34.6991 28.6972 34.568C28.5354 34.3951 28.3737 34.2111 28.2315 34.0159C28.1116 33.8653 28.0056 33.7119 27.8969 33.5502C27.8216 33.4415 27.7463 33.3243 27.671 33.2044C29.4668 30.3824 32.5928 28.6507 35.9669 28.6507C39.3411 28.6507 42.467 30.3824 44.2742 33.2044C44.1822 33.302 44.1179 33.422 44.0314 33.5279ZM33.993 24.6045C33.993 23.5226 34.8798 22.6358 35.9617 22.6358C37.0437 22.6358 37.9304 23.5226 37.9304 24.6045C37.9304 25.6865 37.0437 26.5732 35.9617 26.5732C34.8686 26.5732 33.993 25.6865 33.993 24.6045ZM26.648 31.0963C26.3022 30.0785 26.0959 29.0077 26.0959 27.9174C26.0959 22.4881 30.5185 18.0624 35.9508 18.0624C41.3913 18.0624 45.8137 22.4851 45.8137 27.9174C45.8137 28.9993 45.6185 30.0701 45.2615 31.0963C43.6944 29.1276 41.5611 27.6999 39.1602 27.0306C39.6677 26.3614 39.9827 25.5276 39.9827 24.6185C39.9827 22.4016 38.1758 20.5835 35.9477 20.5835C33.7308 20.5835 31.9127 22.3905 31.9127 24.6185C31.9127 25.5276 32.225 26.3586 32.7353 27.0306C30.3483 27.6887 28.2179 29.1165 26.648 31.0963Z" fill="black"/>
<path d="M52.5974 60.0723H27.7625C27.1881 60.0723 26.7363 60.538 26.7363 61.0985C26.7363 61.6729 27.202 62.1246 27.7625 62.1246H52.5974C53.1718 62.1246 53.6235 61.659 53.6235 61.0985C53.6235 60.538 53.169 60.0723 52.5974 60.0723Z" fill="black"/>
<path d="M22.6914 60.0723H19.3172C18.7428 60.0723 18.291 60.538 18.291 61.0985C18.291 61.6729 18.7567 62.1246 19.3172 62.1246H22.6914C23.2658 62.1246 23.7176 61.659 23.7176 61.0985C23.7176 60.538 23.263 60.0723 22.6914 60.0723Z" fill="black"/>
<path d="M52.5974 54.3835H27.7625C27.1881 54.3835 26.7363 54.8492 26.7363 55.4097C26.7363 55.9842 27.202 56.4359 27.7625 56.4359H52.5974C53.1718 56.4359 53.6235 55.9702 53.6235 55.4097C53.6235 54.8381 53.169 54.3835 52.5974 54.3835Z" fill="black"/>
<path d="M22.6914 54.3835H19.3172C18.7428 54.3835 18.291 54.8492 18.291 55.4097C18.291 55.9842 18.7567 56.4359 19.3172 56.4359H22.6914C23.2658 56.4359 23.7176 55.9702 23.7176 55.4097C23.7176 54.8381 23.263 54.3835 22.6914 54.3835Z" fill="black"/>
<path d="M52.5974 48.6832H27.7625C27.1881 48.6832 26.7363 49.1489 26.7363 49.7094C26.7363 50.2727 27.202 50.7356 27.7625 50.7356H52.5974C53.1718 50.7356 53.6235 50.2699 53.6235 49.7094C53.6235 49.1461 53.169 48.6832 52.5974 48.6832Z" fill="black"/>
<path d="M22.6914 48.6832H19.3172C18.7428 48.6832 18.291 49.1489 18.291 49.7094C18.291 50.2727 18.7567 50.7356 19.3172 50.7356H22.6914C23.2658 50.7356 23.7176 50.2699 23.7176 49.7094C23.7176 49.1461 23.263 48.6832 22.6914 48.6832Z" fill="black"/>
<path d="M52.5974 42.9808H27.7625C27.1881 42.9808 26.7363 43.4465 26.7363 44.007C26.7363 44.5703 27.202 45.0332 27.7625 45.0332H52.5974C53.1718 45.0332 53.6235 44.5675 53.6235 44.007C53.6235 43.4465 53.169 42.9808 52.5974 42.9808Z" fill="black"/>
<path d="M22.6914 42.9808H19.3172C18.7428 42.9808 18.291 43.4465 18.291 44.007C18.291 44.5703 18.7567 45.0332 19.3172 45.0332H22.6914C23.2658 45.0332 23.7176 44.5675 23.7176 44.007C23.7176 43.4465 23.263 42.9808 22.6914 42.9808Z" fill="black"/>
</svg>
