<svg width="79" height="75" viewBox="0 0 79 75" fill="none" xmlns="http://www.w3.org/2000/svg">
<g style="mix-blend-mode:luminosity" opacity="0.7">
<path opacity="0.6" fill-rule="evenodd" clip-rule="evenodd" d="M41.7087 2.49247L47.1968 19.3931L49.2122 19.4571L64.9017 19.3611C66.6383 19.6483 68.0339 20.9905 68.4056 22.7156C68.6542 23.8978 68.2198 25.3676 67.3515 26.2937L66.2044 27.2847L52.9331 37.0931L53.243 38.3393L58.2665 54.0257C58.5453 55.0798 58.3283 56.3581 57.7708 57.3482C56.8087 58.6584 55.2588 59.4254 53.5533 58.9461L52.3133 58.4348L38.1737 47.9885L37.7397 48.2116L23.6317 58.5633C22.5468 59.2658 20.7787 59.2658 19.7245 58.5633C18.5463 57.8279 17.5851 56.262 17.8332 54.5054L18.1435 53.0996L23.2591 37.1575L20.2514 34.8887L9.1199 26.677C7.91103 25.5908 7.35306 24.0249 7.78655 22.3959C8.25204 20.7664 9.5854 19.7448 11.1664 19.5207H28.8717L30.2358 15.5588L34.391 2.46002C35.0117 1.02262 36.438 -0.0319709 38.0496 0.000484992C39.8178 0.000484992 40.9649 1.08664 41.7087 2.49247Z" fill="#CC2131"/>
<path opacity="0.6" fill-rule="evenodd" clip-rule="evenodd" d="M39.0109 3.25926L39.476 4.31385L45.2122 22.141L45.2678 22.2682H64.5612C64.964 22.4602 65.3975 22.4602 65.6154 22.9715C65.8323 23.2587 65.6772 23.7064 65.6154 24.0257L64.964 24.7606L49.6306 36.0983L49.8018 36.5812L55.631 54.6964C55.6928 55.2068 55.5998 55.655 55.2584 56.0067C54.9485 56.2299 54.483 56.3575 54.0802 56.1979L51.8479 54.6644L38.1119 44.5689L22.2668 56.1338C21.8017 56.4219 21.1508 56.2614 20.8098 55.8786C20.4688 55.3673 20.5306 54.6969 20.6858 54.09L26.4532 36.0392L10.9179 24.537C10.6392 24.2493 10.3906 23.802 10.3906 23.3868C10.4533 23.0035 10.6698 22.5563 11.0726 22.4282L12.2206 22.2682H30.9218L31.073 21.8213L36.8715 3.61138C37.1191 3.19612 37.4295 2.81243 37.8945 2.74885C38.3596 2.7164 38.7313 2.94003 39.0109 3.25926Z" fill="#F6D43C"/>
<path opacity="0.6" fill-rule="evenodd" clip-rule="evenodd" d="M33.1196 25.0158C33.3055 25.1754 33.3988 25.4631 33.3366 25.6867C32.9644 26.1024 32.5305 25.5275 32.0339 25.6551C31.4764 25.7192 30.7632 26.0068 30.2973 25.6867C30.0496 25.4631 29.8945 24.9842 30.0496 24.633C30.3595 24.1857 31.0109 24.2493 31.5382 24.3133C32.1579 24.4729 32.623 24.6641 33.1196 25.0158ZM46.0495 24.505C46.2665 24.7286 46.2665 25.1759 46.0806 25.4631C45.6462 26.198 44.7468 25.6227 44.0955 25.6551C43.6611 25.6231 43.2583 26.0384 42.8866 25.7192C42.731 25.3039 43.0724 24.9847 43.3823 24.7931C44.127 24.3453 45.2123 24.0252 46.0495 24.505ZM45.4911 28.9456C45.801 28.9136 45.8637 29.1373 45.9254 29.3929C45.8943 29.8722 45.6156 30.0322 45.3052 30.2879C44.468 30.5115 43.7554 29.9046 43.0111 29.7126C42.3904 29.8406 41.5532 30.2239 40.933 29.7441C40.765 29.5694 40.6497 29.3507 40.6004 29.1134C40.5511 28.876 40.5697 28.6295 40.6543 28.4023C40.8712 28.1147 41.3674 28.3387 41.6773 28.2107C42.2668 27.795 43.0413 27.3802 43.7554 27.6994C44.3751 28.1787 44.6855 28.9456 45.4911 28.9456ZM35.3831 28.2432C35.6618 28.5624 35.693 28.9781 35.5071 29.3929C35.352 29.8086 34.918 29.9362 34.5455 29.9678C33.8323 30.1278 33.2743 29.3613 32.6541 29.9042C32.1273 30.0958 31.6306 30.4791 31.0411 30.3194C30.7317 30.2239 30.4525 29.9678 30.2973 29.6806C30.2666 29.3929 30.2973 29.0737 30.5458 28.9456C31.8792 29.0737 31.9721 27.1566 33.4602 27.6358C34.112 27.8275 34.4836 28.4988 35.3831 28.2432ZM40.3444 32.2366C40.5302 32.6514 40.0647 32.971 39.786 33.1311C38.4837 33.5464 36.7782 33.3867 35.7241 32.6514C35.5689 32.2366 35.9726 32.0445 36.2514 31.8529C37.4918 31.406 39.3209 31.3096 40.3444 32.2366ZM32.3438 33.9932C32.3749 34.5685 31.7858 34.9197 32.0339 35.495C33.8946 37.6353 37.1815 39.0092 40.3133 38.051C41.8329 37.5398 43.1969 36.6137 44.22 35.3674C44.3756 34.7606 43.4143 34.1217 44.1897 33.6108C44.8402 33.6744 44.9953 34.4409 45.4915 34.7606C45.8014 35.2078 46.6697 35.0798 46.6386 35.7511C46.5768 36.0708 46.298 36.262 45.957 36.1984C44.7161 35.4635 44.5303 37.3166 43.6931 37.7318C41.6777 39.5845 38.887 40.8627 36.0037 39.873C34.019 39.1377 32.4687 37.9559 31.2599 36.2624C30.8877 35.7196 29.3681 36.8057 29.6166 35.4635C29.9269 35.1763 30.392 35.0166 30.7019 34.761C31.3212 34.4725 31.724 32.843 32.3438 33.9932ZM9.5211 62.1382C9.65003 61.738 9.84388 61.0916 10.4241 60.9996C10.9083 60.9066 11.4889 60.9378 11.8117 61.2454C12.5217 62.1995 11.9411 63.307 12.0051 64.4452C12.07 65.061 12.3279 65.707 12.0051 66.2912C11.4569 66.9683 10.4886 67.0919 9.68249 66.8461C8.3269 66.4143 9.4882 64.7533 8.52075 64.1375C7.97256 63.5525 6.94019 63.4915 6.03721 63.6147C5.29517 63.7685 4.77854 64.2296 4.42375 64.8765C3.71461 66.7843 3.52077 69.5537 4.71408 71.3379C5.35919 72.015 6.52049 72.2915 7.55285 72.107C8.03702 72.015 8.61723 71.7682 8.84353 71.3379C9.32725 70.3842 8.5532 69.2451 9.84344 68.6302C10.4565 68.5382 11.1017 68.4453 11.6178 68.7841C12.4888 69.399 12.5853 70.6919 12.263 71.7069C11.6498 73.6458 9.55311 74.6306 7.52084 74.7844C4.93994 75.0916 2.48796 74.1384 1.19773 72.3529C-0.447736 69.8302 -0.318357 65.9529 1.10081 63.3377C2.32657 61.4908 4.55269 60.6608 6.90774 60.9062C7.90809 61.0916 8.90844 61.5224 9.5211 62.1382ZM66.9119 61.4606C67.3312 61.8296 67.3637 62.2916 67.3312 62.7842C67.2667 63.215 67.0413 63.6151 66.6216 63.7992C65.912 63.861 64.7258 63.4066 64.3715 64.2994C64.347 66.999 64.6938 71.0075 64.0407 72.292C63.1377 73.8005 61.5243 74.8466 59.6209 74.7848C57.4597 74.908 55.5239 74.2309 54.3311 72.569C53.718 71.7073 53.6206 70.2619 54.1372 69.3074C54.685 68.1994 55.8472 67.4614 57.1054 67.3693C58.2342 67.3693 59.3631 67.7695 59.8468 68.785C60.1055 69.431 59.9442 70.354 59.3951 70.815C58.9758 71.1538 58.4276 71.1849 57.879 71.0929C57.5566 71 57.4273 70.7541 57.2659 70.5078C56.976 70.4469 57.008 70.7848 56.9106 70.9079C56.8786 71.4619 57.1694 71.862 57.6211 72.1079C58.2022 72.3849 59.0078 72.5387 59.6538 72.2617C60.7178 71.6775 60.8147 70.4158 60.7827 69.246L60.7507 64.8774C60.5893 64.3536 60.3634 63.9233 59.8468 63.7076C59.1697 63.5227 58.2987 64.1384 57.847 63.4924C57.5246 63.1536 57.4917 62.6615 57.5571 62.2004C57.6216 61.7687 57.9114 61.5233 58.2987 61.3077C60.6537 61.1538 63.2346 61.8305 65.4932 61.1845C66.009 61.1534 66.5576 61.1534 66.9119 61.4606ZM38.2005 61.4606L38.5148 61.8607L38.5233 71.9843C38.9105 72.8153 39.9425 71.7691 40.4591 72.4765C40.8143 72.8766 40.9428 73.5542 40.652 74.0152C40.2977 74.6924 39.4267 74.631 38.7812 74.5074C36.7813 73.9534 34.6842 75.1534 32.9422 74.0455C32.6194 73.7383 32.6194 73.0918 32.7808 72.6917C33.1685 71.8918 34.136 72.5076 34.846 72.3226C35.4266 71.7376 35.3297 70.5763 35.2653 70.0458L35.2813 64.2225C35.1848 64.0064 35.0714 63.6449 34.7815 63.4911C34.2009 63.4911 33.5233 63.8299 33.0396 63.4911C32.7168 63.2141 32.4914 62.7833 32.6523 62.2284C32.7173 61.8905 33.0716 61.6136 33.3619 61.4597C34.3943 61.2445 35.4271 61.5829 36.5235 61.5526C37.0712 61.5224 37.6843 61.2765 38.2005 61.4606Z" fill="#CC2131"/>
<path opacity="0.6" fill-rule="evenodd" clip-rule="evenodd" d="M42.3293 61.9841C43.0717 62.7222 42.9753 64.1378 42.7165 65.1226C42.2008 66.1692 41.4912 67.3994 40.4268 67.9534C40.0716 67.9836 39.6843 67.8302 39.5558 67.5532C39.2006 66.3844 41.9749 65.1226 39.8782 64.5375C39.3624 64.0764 39.2006 63.4918 39.2651 62.7538C39.33 62.2918 39.6528 61.7996 40.104 61.6147C40.8461 61.3066 41.8135 61.5222 42.3293 61.9841ZM21.8443 65.7379C22.296 67.7377 22.0701 69.9225 22.1991 71.9534C22.4894 72.4154 23.4897 72.0757 23.6187 72.7533C23.8685 73.177 23.7476 73.7999 23.4573 74.1689C23.1025 74.6308 22.4894 74.6926 21.8763 74.7229C21.0378 74.6611 20.3602 74.2 20.0699 73.554C18.6827 74.6308 16.5535 75.0616 14.7471 74.4156C14.1344 74.2004 13.36 73.6465 13.1016 73C12.6824 72.0152 12.8113 70.7223 13.424 69.8914C14.8111 68.3837 17.1662 68.8764 18.7792 67.9534C19.2634 67.6764 19.2634 67.1535 19.1989 66.7227C19.0371 66.291 18.6823 66.0456 18.199 65.9229C17.8758 65.9838 17.4245 65.7997 17.2306 66.0758C16.9079 66.5378 17.2306 67.2456 16.6825 67.5843C16.0694 68.0454 15.005 68.1685 14.3274 67.7693C13.9402 67.5225 13.424 66.9992 13.4884 66.4146C13.4564 65.7068 13.9402 65.0306 14.5533 64.7229C16.5211 63.8919 19.4243 63.707 21.1342 64.8767L21.8443 65.7379ZM49.3953 64.999C49.4918 64.7531 49.6532 64.445 49.943 64.353C50.4268 64.2298 51.0079 64.261 51.4271 64.5068C51.653 64.9688 51.4591 65.6148 51.4271 66.1687C51.3951 66.6298 51.8144 67.3074 51.3297 67.7075C51.0399 68.0147 50.5882 68.0147 50.1364 68.0147C48.7809 67.6759 48.5559 65.9229 46.717 66.3839C46.4912 66.476 46.2013 66.6609 46.0719 66.9379C45.9754 67.3069 46.2013 67.7377 46.5876 67.8916C48.5883 68.4455 51.5556 68.2917 52.1042 70.6001C52.3301 71.6458 52.0398 72.9689 51.0728 73.7687C49.6207 74.9385 47.0714 75.1537 45.4268 74.2925L44.5558 73.8003C44.4264 74.1075 44.2006 74.6001 43.7493 74.6001C43.2976 74.6931 42.7819 74.6619 42.4591 74.3543C42.1692 73.2766 42.524 72.1997 42.4591 71.0309C42.6205 70.6921 42.9757 70.5689 43.298 70.4769C43.7818 70.4769 44.3304 70.4467 44.6847 70.7841C45.3628 71.1531 45.2658 72.3531 46.2662 72.4767C47.0078 72.6919 48.0401 72.6919 48.6212 72.2615C48.9111 72.0463 48.9111 71.6458 48.7817 71.3697L48.33 70.9695C46.2982 70.4156 43.1695 70.5387 42.9108 68.0152C42.7169 66.7231 43.2007 65.6152 44.201 64.8767C45.6526 63.9222 48.0072 64.076 49.3953 64.999ZM34.1357 65.6148C34.4585 66.1069 34.5225 66.7227 34.3936 67.3376C34.2002 67.8613 33.8774 68.3842 33.2972 68.6305C32.7486 68.8764 32.0225 68.8145 31.5868 68.5073C31.1355 68.3224 31.0066 67.7693 31.1355 67.3074C31.2004 67.0606 31.3614 66.8463 31.5552 66.6302C30.8452 66.5382 30.1676 66.877 29.7484 67.4923C28.9094 68.815 29.1997 70.3849 29.1997 71.9846C29.5874 72.7844 30.5229 71.8307 31.1355 72.3847C31.5228 72.6617 31.6193 73.2463 31.5228 73.6154C31.3939 74.0462 31.168 74.3232 30.7807 74.5081C28.8774 74.6931 26.8776 74.108 25.0063 74.5699C24.3612 74.4161 24.1028 73.8007 24.0059 73.2463C24.0379 72.8462 24.2638 72.4163 24.6186 72.2922C25.1348 71.893 25.9413 72.816 26.1027 71.9241C26.1347 70.3853 26.2316 68.5393 26.0057 66.969C25.4251 66.3848 24.5541 67.2149 23.9735 66.6618C23.6507 66.3537 23.5862 65.8002 23.7476 65.3698C23.8765 65.0617 24.1669 64.6927 24.5221 64.5691C25.6834 64.4459 26.8447 64.846 28.006 64.5073C28.6516 64.8772 28.1674 65.8308 28.4253 66.415H28.4902C28.845 65.3693 29.8778 64.477 31.0386 64.4152C32.2648 64.2298 33.6195 64.5988 34.1357 65.6148ZM75.6223 65.7379C75.9446 66.476 75.8481 67.5839 75.2679 68.2299C74.8153 68.6918 74.0408 68.8457 73.3637 68.6607C72.9774 68.5385 72.6541 68.2917 72.5248 67.9227C72.4283 67.4919 72.5248 66.9379 72.944 66.6298C72.3638 66.476 71.9446 66.8147 71.4919 67.0299C70.2026 68.2615 70.5899 70.2915 70.5899 72.0152C70.9122 72.6612 71.7507 72.0455 72.3958 72.2913C72.8151 72.3842 72.9436 72.723 73.1063 73.0605C73.2028 73.5842 72.944 74.0453 72.6217 74.3534L72.073 74.5686C70.1052 74.5686 68.2019 74.2298 66.2341 74.5686C65.6864 74.5068 65.4925 74.1066 65.2658 73.6758C65.2013 73.245 65.2013 72.7528 65.589 72.4452C66.1056 71.768 67.6542 73.06 67.5248 71.6142L67.5337 67.1526C67.1144 66.1678 65.7508 67.3985 65.2022 66.5369C65.0737 66.1367 64.9123 65.5828 65.2022 65.1831C65.428 64.8443 65.7188 64.598 66.1381 64.5059C67.1704 64.722 68.2352 64.722 69.2996 64.5059C69.9767 64.9061 69.622 65.8295 69.8474 66.4448C70.4605 65.1831 71.3314 64.4139 72.8475 64.3521C74.1062 64.2912 75.0412 64.8767 75.6223 65.7379Z" fill="#CC2131"/>
<path opacity="0.6" fill-rule="evenodd" clip-rule="evenodd" d="M76.1703 74.9227C77.2573 74.9227 78.1381 74.0819 78.1381 73.0451C78.1381 72.0092 77.2578 71.1685 76.1703 71.1685C75.0841 71.1685 74.2034 72.0092 74.2034 73.0451C74.2034 74.0824 75.0841 74.9227 76.1703 74.9227ZM59.7383 55.39C59.7395 55.0665 59.8689 54.7566 60.0983 54.5284C60.3277 54.3002 60.6383 54.1723 60.9618 54.1727C61.2844 54.1732 61.5937 54.3016 61.8218 54.5298C62.0498 54.7581 62.178 55.0674 62.1782 55.39C62.1782 56.0658 61.6345 56.6127 60.9618 56.6127C60.8012 56.6128 60.6421 56.5813 60.4937 56.5199C60.3452 56.4585 60.2103 56.3684 60.0967 56.2549C59.9831 56.1414 59.8929 56.0065 59.8314 55.8581C59.7699 55.7097 59.7383 55.5507 59.7383 55.39ZM61.9857 55.39C61.9857 54.7969 61.554 54.3341 60.9618 54.3341C60.3661 54.3341 59.9321 54.7969 59.9321 55.39C59.9321 55.9885 60.3665 56.4522 60.9618 56.4522C61.554 56.4518 61.9857 55.988 61.9857 55.39ZM61.5705 56.0725H61.3709L60.9809 55.4447H60.6751V56.0725H60.5074V54.7111H61.1032C61.4642 54.7111 61.586 54.8459 61.586 55.0717C61.586 55.3385 61.3993 55.4381 61.1579 55.4452L61.5705 56.0725ZM60.9298 55.3127C61.1228 55.3127 61.4064 55.3447 61.4064 55.0677C61.4064 54.8547 61.2326 54.8298 61.065 54.8298H60.6751V55.3127H60.9298Z" fill="#CC2131"/>
</g>
</svg>
