<svg width="24" height="24" viewBox="0 0 24 24" fill="none" xmlns="http://www.w3.org/2000/svg">
<g clip-path="url(#clip0_310_2155)">
<path d="M16.9318 7.53197C17.3227 7.14108 17.9567 7.14108 18.3476 7.53197C18.7385 7.923 18.7385 8.55704 18.3476 8.94793L10.8282 16.4676C10.4372 16.8585 9.80312 16.8585 9.41223 16.4676L5.65238 12.7078C5.26149 12.3169 5.26149 11.6828 5.65238 11.292C6.04341 10.9009 6.67745 10.9009 7.06835 11.292L10.1202 14.3438L16.9318 7.53197ZM11.9999 0C15.3132 0 18.3135 1.34337 20.4851 3.51495C22.6566 5.68639 24 8.68684 24 11.9999C24 15.3136 22.6568 18.3135 20.4851 20.4851C18.3135 22.6566 15.3132 24 11.9999 24C8.68644 24 5.68639 22.6568 3.51495 20.4851C1.3431 18.3135 0 15.3136 0 11.9999C0 8.68684 1.34337 5.68639 3.51495 3.51495C5.68639 1.3431 8.68644 0 11.9999 0ZM19.0692 4.93077C17.2602 3.12189 14.7608 2.00291 11.9999 2.00291C9.23898 2.00291 6.73952 3.12189 4.93077 4.93077C3.12189 6.73966 2.00291 9.23925 2.00291 11.9999C2.00291 14.761 3.12189 17.2605 4.93077 19.0692C6.73952 20.8781 9.23898 21.997 11.9999 21.997C14.7608 21.997 17.2602 20.8781 19.0692 19.0692C20.8781 17.2605 21.997 14.761 21.997 11.9999C21.997 9.23925 20.8781 6.73966 19.0692 4.93077Z" fill="black"/>
</g>
<defs>
<clipPath id="clip0_310_2155">
<rect width="24" height="24" fill="white"/>
</clipPath>
</defs>
</svg>
