<svg width="54" height="60" viewBox="0 0 54 60" fill="none" xmlns="http://www.w3.org/2000/svg">
<path d="M12.2406 8.394C12.2406 9.75274 11.1385 10.854 9.78056 10.854C8.42264 10.854 7.32056 9.75274 7.32056 8.394V3.064C7.32056 1.70526 8.42264 0.604004 9.78056 0.604004C11.1385 0.604004 12.2406 1.70526 12.2406 3.064V8.394Z" stroke="#15285D" stroke-width="1.5" stroke-miterlimit="10"/>
<path d="M29.4613 8.394C29.4613 9.75274 28.3592 10.854 27.0013 10.854C25.6433 10.854 24.5413 9.75274 24.5413 8.394V3.064C24.5413 1.70526 25.6433 0.604004 27.0013 0.604004C28.3592 0.604004 29.4613 1.70526 29.4613 3.064V8.394Z" stroke="#15285D" stroke-width="1.5" stroke-miterlimit="10"/>
<path d="M46.68 8.394C46.68 9.75274 45.5779 10.854 44.22 10.854C42.8621 10.854 41.76 9.75274 41.76 8.394V3.064C41.76 1.70526 42.8621 0.604004 44.22 0.604004C45.5779 0.604004 46.68 1.70526 46.68 3.064V8.394Z" stroke="#15285D" stroke-width="1.5" stroke-miterlimit="10"/>
<path d="M7.32047 5.48145H3.32297C1.51159 5.48145 0.0429688 6.95007 0.0429688 8.76145V56.1164C0.0429688 57.9278 1.51159 59.3964 3.32297 59.3964H50.678C52.4893 59.3964 53.958 57.9278 53.958 56.1164V8.76145C53.958 6.95007 52.4893 5.48145 50.678 5.48145H46.6805" stroke="#15285D" stroke-width="1.5" stroke-miterlimit="10"/>
<path d="M24.5405 5.48145H12.2405" stroke="#15285D" stroke-width="1.5" stroke-miterlimit="10"/>
<path d="M41.7609 5.48145H29.4609" stroke="#15285D" stroke-width="1.5" stroke-miterlimit="10"/>
<path d="M0.0429688 16.6074H53.958" stroke="#15285D" stroke-width="1.5" stroke-miterlimit="10"/>
</svg>
