<svg width="70" height="70" viewBox="0 0 70 70" fill="none" xmlns="http://www.w3.org/2000/svg">
<path d="M66.6941 24.2076L64.0063 23.6307C63.8572 23.2096 63.6836 22.7926 63.4895 22.3865L64.9824 20.076C65.3926 19.4416 65.3051 18.6254 64.7719 18.0908L61.8475 15.1664C61.3129 14.6318 60.4967 14.5457 59.8623 14.9559L57.5518 16.4488C57.1484 16.2547 56.7301 16.0824 56.3076 15.932L55.7307 13.2441C55.5721 12.5059 54.9336 11.9891 54.1775 11.9891H50.2988V4.96582C50.2988 4.51328 49.9311 4.14551 49.4785 4.14551H2.87109C2.41855 4.14551 2.05078 4.51328 2.05078 4.96582V65.0332C2.05078 65.4857 2.41855 65.8535 2.87109 65.8535H49.4785C49.9311 65.8535 50.2988 65.4857 50.2988 65.0332V43.6682H54.1762C54.9322 43.6682 55.5707 43.1527 55.7293 42.4131L56.3062 39.7252C56.7273 39.5762 57.1443 39.4039 57.5504 39.2084L59.8609 40.7014C60.4953 41.1115 61.3129 41.0254 61.8461 40.4908L64.7705 37.5664C65.3051 37.0318 65.3912 36.2156 64.9811 35.5812L63.4881 33.2707C63.6822 32.866 63.8559 32.4477 64.0049 32.0266L66.6928 31.4496C67.4324 31.291 67.9479 30.6525 67.9479 29.8965V25.7607C67.9492 25.0047 67.4324 24.3662 66.6941 24.2076ZM3.69141 64.2143V5.78613H48.6582V12.793C48.5816 12.9311 48.5215 13.0814 48.4873 13.2428L47.9104 15.9307C47.4893 16.0797 47.0723 16.252 46.6662 16.4461L44.3557 14.9531C43.7213 14.543 42.9037 14.6291 42.3705 15.1637L39.4461 18.0881C38.9115 18.6227 38.8254 19.4389 39.2355 20.0732L40.7285 22.3838C40.5344 22.7885 40.3607 23.2055 40.2117 23.6279L37.5238 24.2049C36.7855 24.3635 36.2687 25.002 36.2687 25.758V29.8937C36.2687 30.6498 36.7855 31.2883 37.5238 31.4469L40.2117 32.0238C40.3607 32.4449 40.5344 32.8619 40.7285 33.268L39.2355 35.5785C38.8254 36.2129 38.9115 37.0291 39.4461 37.5637L42.3705 40.4881C42.9051 41.0227 43.7213 41.1088 44.3557 40.6986L46.6662 39.2057C47.0709 39.3998 47.4879 39.5721 47.9104 39.7225L48.4873 42.4104C48.5215 42.5717 48.5816 42.7221 48.6582 42.8602V64.2102H3.69141V64.2143ZM66.3086 29.8541L63.633 30.4283C63.0875 30.5445 62.6527 30.9287 62.4668 31.4564C62.3328 31.8379 62.1756 32.2166 61.9992 32.5844C61.7572 33.0875 61.7928 33.6672 62.0963 34.1361L63.5824 36.4357L60.7168 39.3014L58.4172 37.8152C57.9482 37.5117 57.3672 37.4762 56.8654 37.7182C56.499 37.8945 56.1189 38.0518 55.7375 38.1857C55.2111 38.3703 54.827 38.8064 54.7107 39.3506L54.1365 42.0262H50.0842L49.5086 39.3506C49.391 38.8051 49.0068 38.3703 48.4818 38.1857C48.1004 38.0518 47.7203 37.8945 47.3539 37.7182C46.8508 37.4748 46.2711 37.5117 45.8008 37.8152L43.5012 39.3014L40.6355 36.4357L42.1217 34.1361C42.4252 33.6672 42.4607 33.0875 42.2188 32.583C42.0424 32.2166 41.8852 31.8365 41.7512 31.4551C41.5666 30.9287 41.1305 30.5445 40.5863 30.4283L37.9107 29.8541V25.8018L40.5863 25.2275C41.1318 25.11 41.5666 24.7258 41.7525 24.1994C41.8865 23.818 42.0438 23.4379 42.2201 23.0715C42.4621 22.5684 42.4266 21.9887 42.123 21.5197L40.6369 19.2201L43.5025 16.3545L45.8008 17.8406C46.2697 18.1441 46.8508 18.1797 47.3539 17.9377C47.7203 17.7613 48.1004 17.6041 48.4818 17.4701C49.0082 17.2855 49.3924 16.8494 49.5086 16.3053L50.0842 13.6297H54.1365L54.7107 16.3053C54.8283 16.8508 55.2125 17.2855 55.7389 17.4701C56.1203 17.6041 56.5004 17.7613 56.8668 17.9377C57.3699 18.1811 57.9496 18.1441 58.4186 17.8406L60.7182 16.3545L63.5838 19.2201L62.0977 21.5197C61.7941 21.9887 61.7586 22.5684 62.0006 23.0715C62.177 23.4379 62.3342 23.818 62.4682 24.1994C62.6527 24.7258 63.0889 25.11 63.633 25.2275L66.3086 25.8018V29.8541ZM52.109 18.2357C46.8193 18.2357 42.5154 22.5396 42.5154 27.8293C42.5154 30.7346 43.8156 33.3391 45.8609 35.1C45.9047 35.1479 45.9539 35.1902 46.0072 35.2271C47.667 36.5984 49.793 37.4229 52.109 37.4229C54.425 37.4229 56.551 36.5984 58.2107 35.2271C58.2641 35.1916 58.3133 35.1479 58.357 35.1C60.4037 33.3391 61.7025 30.7332 61.7025 27.8293C61.7025 22.5383 57.3986 18.2357 52.109 18.2357ZM47.2855 34.1457V32.9385C47.2855 31.4551 48.4914 30.2492 49.9748 30.2492H54.2445C55.7279 30.2492 56.9338 31.4551 56.9338 32.9385V34.1457C55.5953 35.1711 53.9232 35.7822 52.1104 35.7822C50.2975 35.7822 48.624 35.1697 47.2855 34.1457ZM58.5498 32.4846C58.3229 30.3094 56.4785 28.6072 54.2432 28.6072H49.9734C47.7395 28.6072 45.8951 30.3094 45.6668 32.4846C44.7166 31.1748 44.1547 29.5656 44.1547 27.8279C44.1547 23.4434 47.7217 19.875 52.1076 19.875C56.4936 19.875 60.0605 23.442 60.0605 27.8279C60.0619 29.567 59.5 31.1748 58.5498 32.4846ZM52.109 21.1916C50.2605 21.1916 48.7566 22.6955 48.7566 24.5439C48.7566 26.3924 50.2605 27.8963 52.109 27.8963C53.9574 27.8963 55.4613 26.3924 55.4613 24.5439C55.4627 22.6955 53.9574 21.1916 52.109 21.1916ZM52.109 26.257C51.1643 26.257 50.3973 25.4887 50.3973 24.5453C50.3973 23.602 51.1656 22.8322 52.109 22.8322C53.0523 22.8322 53.8207 23.6006 53.8207 24.5439C53.8207 25.4873 53.0537 26.257 52.109 26.257ZM13.7033 11.5625C13.7033 11.11 14.0711 10.7422 14.5236 10.7422H37.8273C38.2799 10.7422 38.6477 11.11 38.6477 11.5625C38.6477 12.015 38.2799 12.3828 37.8273 12.3828H14.5236C14.0697 12.3828 13.7033 12.015 13.7033 11.5625ZM17.8883 18.4094H9.24902C8.79648 18.4094 8.42871 18.7771 8.42871 19.2297V27.8676C8.42871 28.3201 8.79648 28.6879 9.24902 28.6879H17.8869C18.3395 28.6879 18.7072 28.3201 18.7072 27.8676V19.2297C18.7086 18.7758 18.3408 18.4094 17.8883 18.4094ZM17.068 27.0473H10.0693V20.05H17.0666V27.0473H17.068ZM38.2334 21.1383C38.2334 21.5908 37.8656 21.9586 37.4131 21.9586H24.418C23.9654 21.9586 23.5977 21.5908 23.5977 21.1383C23.5977 20.6857 23.9654 20.318 24.418 20.318H37.4131C37.8656 20.318 38.2334 20.6844 38.2334 21.1383ZM23.6975 25.959C23.6975 25.5064 24.0652 25.1387 24.5178 25.1387H34.1605C34.6131 25.1387 34.9809 25.5064 34.9809 25.959C34.9809 26.4115 34.6131 26.7793 34.1605 26.7793H24.5178C24.0652 26.7793 23.6975 26.4129 23.6975 25.959ZM11.334 24.2883C11.0141 23.9684 11.0141 23.4488 11.334 23.1275C11.6539 22.8076 12.1734 22.8076 12.4947 23.1275L13.1059 23.7387L15.1963 21.6482C15.5162 21.3283 16.0357 21.3283 16.357 21.6482C16.677 21.9682 16.677 22.4877 16.357 22.809L13.6855 25.4805C13.5311 25.6336 13.3232 25.7211 13.1059 25.7211C12.8885 25.7211 12.6793 25.635 12.5262 25.4805L11.334 24.2883ZM17.8883 33.1271H9.24902C8.79648 33.1271 8.42871 33.4949 8.42871 33.9475V42.5854C8.42871 43.0379 8.79648 43.4057 9.24902 43.4057H17.8869C18.3395 43.4057 18.7072 43.0379 18.7072 42.5854V33.9475C18.7086 33.4936 18.3408 33.1271 17.8883 33.1271ZM17.068 41.765H10.0693V34.7678H17.0666V41.765H17.068ZM24.4166 35.0344H36.9182C37.3707 35.0344 37.7385 35.4021 37.7385 35.8547C37.7385 36.3072 37.3707 36.675 36.9182 36.675H24.4166C23.9641 36.675 23.5963 36.3072 23.5963 35.8547C23.5963 35.4021 23.9641 35.0344 24.4166 35.0344ZM37.5758 39.8564C38.0283 39.8564 38.3961 40.2242 38.3961 40.6768C38.3961 41.1293 38.0283 41.4971 37.5758 41.4971H24.5178C24.0652 41.4971 23.6975 41.1293 23.6975 40.6768C23.6975 40.2242 24.0652 39.8564 24.5178 39.8564H37.5758ZM17.8883 47.8436H9.24902C8.79648 47.8436 8.42871 48.2113 8.42871 48.6639V57.3018C8.42871 57.7543 8.79648 58.1221 9.24902 58.1221H17.8869C18.3395 58.1221 18.7072 57.7543 18.7072 57.3018V48.6639C18.7086 48.2113 18.3408 47.8436 17.8883 47.8436ZM17.068 56.4828H10.0693V49.4855H17.0666V56.4828H17.068ZM43.9209 50.5725C43.9209 51.025 43.5531 51.3928 43.1006 51.3928H24.4166C23.9641 51.3928 23.5963 51.025 23.5963 50.5725C23.5963 50.1199 23.9641 49.7521 24.4166 49.7521H43.1006C43.5531 49.7521 43.9209 50.1199 43.9209 50.5725ZM38.3961 55.3945C38.3961 55.8471 38.0283 56.2148 37.5758 56.2148H24.5178C24.0652 56.2148 23.6975 55.8471 23.6975 55.3945C23.6975 54.942 24.0652 54.5742 24.5178 54.5742H37.5758C38.0283 54.5742 38.3961 54.9406 38.3961 55.3945Z" fill="#16285E"/>
</svg>
