<svg width="64" height="64" viewBox="0 0 64 64" fill="none" xmlns="http://www.w3.org/2000/svg">
<path d="M50.3969 9.30469H26.5312C26.3137 9.30469 26.105 9.39111 25.9512 9.54495C25.7974 9.69879 25.7109 9.90744 25.7109 10.125C25.7109 10.3426 25.7974 10.5512 25.9512 10.705C26.105 10.8589 26.3137 10.9453 26.5312 10.9453H50.3969C51.1018 10.9453 51.7778 11.2253 52.2762 11.7238C52.7747 12.2222 53.0547 12.8982 53.0547 13.6031V37.4688C53.0547 37.6863 53.1411 37.895 53.295 38.0488C53.4488 38.2026 53.6574 38.2891 53.875 38.2891C54.0926 38.2891 54.3012 38.2026 54.455 38.0488C54.6089 37.895 54.6953 37.6863 54.6953 37.4688V13.6031C54.6953 12.4631 54.2424 11.3698 53.4363 10.5637C52.6302 9.75756 51.5369 9.30469 50.3969 9.30469Z" fill="#15295F"/>
<path d="M42.7516 15.5938H14.9922C13.4828 15.5966 12.0362 16.1983 10.9699 17.2666C9.90355 18.335 9.30468 19.7828 9.30469 21.2922V49.0078C9.30469 50.5162 9.9039 51.9629 10.9705 53.0295C12.0371 54.0961 13.4838 54.6953 14.9922 54.6953H42.7516C44.2534 54.6838 45.69 54.0798 46.7489 53.0148C47.8078 51.9497 48.4034 50.5097 48.4062 49.0078V21.2484C48.392 19.7531 47.7917 18.3231 46.7343 17.2657C45.6769 16.2083 44.2469 15.608 42.7516 15.5938ZM42.7516 53.0984H14.9922C14.4607 53.0984 13.9345 52.9938 13.4435 52.7904C12.9525 52.587 12.5064 52.2889 12.1306 51.9131C11.7548 51.5373 11.4567 51.0912 11.2534 50.6002C11.05 50.1092 10.9453 49.583 10.9453 49.0516V25.4375H46.8094V49.0078C46.8065 50.0821 46.3777 51.1114 45.617 51.8701C44.8563 52.6287 43.8259 53.0547 42.7516 53.0547V53.0984ZM46.8094 23.7969H10.9453V21.2484C10.9453 20.1741 11.3713 19.1437 12.1299 18.383C12.8886 17.6223 13.9179 17.1935 14.9922 17.1906H42.7516C43.8278 17.1906 44.8599 17.6181 45.6209 18.3791C46.3819 19.1401 46.8094 20.1722 46.8094 21.2484V23.7969Z" fill="#15295F"/>
<path d="M49.5 63.4453H14.5C10.8024 63.4424 7.257 61.9723 4.64237 59.3576C2.02775 56.743 0.557584 53.1976 0.554688 49.5V14.5C0.557584 10.8024 2.02775 7.257 4.64237 4.64237C7.257 2.02775 10.8024 0.557584 14.5 0.554688H49.5C53.1976 0.557584 56.743 2.02775 59.3576 4.64237C61.9723 7.257 63.4424 10.8024 63.4453 14.5V49.5C63.4424 53.1976 61.9723 56.743 59.3576 59.3576C56.743 61.9723 53.1976 63.4424 49.5 63.4453ZM14.5 2.19531C11.2384 2.2011 8.11198 3.49934 5.80566 5.80566C3.49934 8.11198 2.2011 11.2384 2.19531 14.5V49.5C2.2011 52.7616 3.49934 55.888 5.80566 58.1943C8.11198 60.5007 11.2384 61.7989 14.5 61.8047H49.5C52.7616 61.7989 55.888 60.5007 58.1943 58.1943C60.5007 55.888 61.7989 52.7616 61.8047 49.5V14.5C61.7989 11.2384 60.5007 8.11198 58.1943 5.80566C55.888 3.49934 52.7616 2.2011 49.5 2.19531H14.5Z" fill="#15295F"/>
</svg>
