<svg width="70" height="70" viewBox="0 0 70 70" fill="none" xmlns="http://www.w3.org/2000/svg">
<path d="M30.56 19.7653V24.9948C30.56 26.6819 29.1914 28.0532 27.5084 28.0532C25.8254 28.0532 24.4568 26.6805 24.4568 24.9948C24.4568 24.5422 24.8246 24.1745 25.2771 24.1745C25.7297 24.1745 26.0975 24.5422 26.0975 24.9948C26.0975 25.7768 26.7305 26.4125 27.5084 26.4125C28.2863 26.4125 28.9193 25.7768 28.9193 24.9948V19.7653C28.9193 19.3127 29.2871 18.945 29.7396 18.945C30.1922 18.945 30.56 19.3127 30.56 19.7653ZM38.7453 22.1223V24.8649C38.7453 26.6176 37.3193 28.0422 35.568 28.0422C33.8166 28.0422 32.3906 26.6163 32.3906 24.8649V22.1223C32.3906 20.3696 33.8166 18.945 35.568 18.945C37.3193 18.945 38.7453 20.3709 38.7453 22.1223ZM37.1047 22.1223C37.1047 21.2747 36.4156 20.5856 35.568 20.5856C34.7203 20.5856 34.0312 21.2747 34.0312 22.1223V24.8649C34.0312 25.7125 34.7203 26.4016 35.568 26.4016C36.4156 26.4016 37.1047 25.7125 37.1047 24.8649V22.1223ZM46.5 21.8653C46.5 22.5571 46.2279 23.1846 45.7863 23.6508C46.2266 24.1184 46.5 24.7459 46.5 25.4364C46.5 26.8733 45.3311 28.0422 43.8941 28.0422H41.6301C41.1775 28.0422 40.8098 27.6745 40.8098 27.2219V23.6495V20.077C40.8098 19.6245 41.1775 19.2567 41.6301 19.2567H43.8941C45.3311 19.2581 46.5 20.4284 46.5 21.8653ZM43.8941 20.8987H42.4504V22.8305H43.8941C44.426 22.8305 44.8594 22.3971 44.8594 21.8653C44.8594 21.3321 44.426 20.8987 43.8941 20.8987ZM44.8594 25.4364C44.8594 24.9045 44.426 24.4711 43.8941 24.4711H42.4504V26.403H43.8941C44.426 26.403 44.8594 25.9696 44.8594 25.4364ZM65.9086 28.4524V67.1288C65.9086 67.5813 65.5408 67.9491 65.0883 67.9491H4.91016C4.45762 67.9491 4.08984 67.5813 4.08984 67.1288V28.4524C4.08984 28.4223 4.09121 28.3936 4.09395 28.3649C4.09395 28.3581 4.09531 28.3526 4.09668 28.3471C4.09941 28.3239 4.10352 28.302 4.10762 28.2801C4.10898 28.2733 4.11172 28.2665 4.11309 28.2596C4.11855 28.2377 4.12402 28.2172 4.13086 28.1967C4.13359 28.1899 4.13633 28.1817 4.13906 28.1749C4.1459 28.1557 4.15273 28.1366 4.1623 28.1174C4.16641 28.1092 4.17051 28.101 4.17461 28.0928C4.18281 28.075 4.19238 28.0586 4.20059 28.0422C4.20605 28.034 4.21152 28.0245 4.21699 28.0163C4.22656 28.0012 4.23613 27.9862 4.24707 27.9725C4.25391 27.9643 4.25937 27.9547 4.26621 27.9465C4.27715 27.9329 4.28809 27.9192 4.30039 27.9069C4.30723 27.8987 4.31406 27.8905 4.32227 27.8823C4.33594 27.8686 4.34961 27.8549 4.36328 27.8426C4.36875 27.8372 4.37422 27.8317 4.37969 27.8276L13.7887 19.8282V10.3016C13.7887 9.84907 14.1564 9.4813 14.609 9.4813H25.958L34.4688 2.24614C34.775 1.98501 35.2248 1.98501 35.5311 2.24614L44.0418 9.4813H56.3506C56.8031 9.4813 57.1709 9.84907 57.1709 10.3016V20.643L65.6201 27.8262C65.6256 27.8303 65.6311 27.8358 65.6365 27.8413C65.6502 27.8536 65.6652 27.8672 65.6775 27.8809C65.6844 27.8891 65.6926 27.8973 65.6994 27.9055C65.7117 27.9192 65.7227 27.9315 65.7336 27.9452C65.7404 27.9534 65.7473 27.9629 65.7527 27.9711C65.7637 27.9862 65.7732 27.9999 65.7828 28.0149C65.7883 28.0231 65.7937 28.0327 65.7992 28.0409C65.8088 28.0573 65.817 28.0737 65.8252 28.0915C65.8293 28.0997 65.8334 28.1079 65.8375 28.1161C65.8457 28.1352 65.8525 28.1543 65.8607 28.1735C65.8635 28.1803 65.8662 28.1885 65.8689 28.1954C65.8758 28.2159 65.8812 28.2364 65.8867 28.2583C65.8881 28.2651 65.8908 28.2719 65.8922 28.2788C65.8977 28.3006 65.9004 28.3239 65.9031 28.3458C65.9045 28.3512 65.9059 28.3581 65.9059 28.3635C65.9072 28.3936 65.9086 28.4223 65.9086 28.4524ZM64.268 30.227L35.5311 54.6586C35.3779 54.7885 35.1893 54.8542 34.9992 54.8542C34.8092 54.8542 34.6205 54.7885 34.4674 54.6586L5.73047 30.227V65.0506L19.4229 53.409C19.7674 53.1165 20.2855 53.1575 20.5795 53.502C20.8734 53.8479 20.8311 54.3647 20.4852 54.6586L6.7832 66.3084H62.9336L49.5051 54.6532C49.1633 54.3565 49.1264 53.8383 49.423 53.4965C49.7197 53.1547 50.2379 53.1178 50.5797 53.4145L64.2666 65.294V30.227H64.268ZM57.1695 22.7977V34.1084L63.8209 28.4538L57.1695 22.7977ZM28.49 9.4813H41.5084L34.9992 3.94829L28.49 9.4813ZM15.4279 11.1219V36.3178L34.9992 52.9565L55.5289 35.5016V11.1219H15.4279ZM6.17617 28.4524L13.7873 34.9233V21.9815L6.17617 28.4524ZM19.4311 30.7137V16.2858C19.4311 15.8333 19.7988 15.4655 20.2514 15.4655H50.7055C51.158 15.4655 51.5258 15.8333 51.5258 16.2858V30.7151C51.5258 31.1676 51.158 31.5354 50.7055 31.5354H20.2514C19.7988 31.534 19.4311 31.1663 19.4311 30.7137ZM21.0717 29.8934H49.8852V17.1047H21.0717V29.8934ZM46.5082 36.1866H24.4486C23.9961 36.1866 23.6283 36.5543 23.6283 37.0069C23.6283 37.4594 23.9961 37.8272 24.4486 37.8272H46.5082C46.9607 37.8272 47.3285 37.4594 47.3285 37.0069C47.3285 36.5543 46.9621 36.1866 46.5082 36.1866ZM44.1457 40.4221H26.8125C26.36 40.4221 25.9922 40.7899 25.9922 41.2424C25.9922 41.695 26.36 42.0627 26.8125 42.0627H44.1457C44.5982 42.0627 44.966 41.695 44.966 41.2424C44.966 40.7899 44.5982 40.4221 44.1457 40.4221ZM40.3066 44.659H30.6516C30.199 44.659 29.8312 45.0268 29.8312 45.4793C29.8312 45.9319 30.199 46.2997 30.6516 46.2997H40.3066C40.7592 46.2997 41.127 45.9319 41.127 45.4793C41.127 45.0268 40.7592 44.659 40.3066 44.659Z" fill="#15285C"/>
</svg>
