<svg width="50" height="48" viewBox="0 0 50 48" fill="none" xmlns="http://www.w3.org/2000/svg">
<path d="M1.25197 47.8936H8.38252C11.6602 47.8912 14.4822 45.5557 15.1326 42.3056L17.5298 43.9663V43.9639C18.941 44.9428 20.6104 45.4655 22.3197 45.4607H38.2554C41.6528 45.4464 44.4002 42.6572 44.4044 39.2192V28.6064C44.3997 25.1614 41.6408 22.3697 38.2361 22.3673H31.0539V16.5132C31.0539 12.6644 27.9711 9.54245 24.1674 9.54245C23.1014 9.54721 22.2397 10.4215 22.2397 11.5002V19.1406L15.2709 23.9445V22.8612C15.2709 22.5238 15.1371 22.2031 14.9023 21.9655C14.6675 21.7279 14.3505 21.5924 14.0171 21.5924H1.25144C0.558819 21.5924 0 22.1603 0 22.8611V46.6242C0 46.9615 0.131485 47.2822 0.366283 47.5199C0.601074 47.7575 0.920401 47.8929 1.25149 47.8929L1.25197 47.8936ZM43.1511 28.6064V39.2192C43.1487 41.9656 40.951 44.1895 38.2368 44.1918H32.4632L31.3103 41.987H31.3127C31.1436 41.6663 31.0544 41.3075 31.0544 40.9416V40.8656H38.8497C39.1972 40.8656 39.4767 40.5829 39.4767 40.2336C39.4767 39.882 39.1973 39.5992 38.8497 39.5992H31.0544V36.9573H38.8497C39.1972 36.9573 39.4767 36.6745 39.4767 36.3229C39.4767 35.9736 39.1973 35.6909 38.8497 35.6909H31.0544V33.0489H38.8497C39.1972 33.0489 39.4767 32.7638 39.4767 32.4146C39.4767 32.0653 39.1973 31.7802 38.8497 31.7802H31.0544V31.0841C31.0544 30.4877 31.2868 29.9152 31.7024 29.4923C32.118 29.0694 32.6815 28.8294 33.2709 28.8294H37.2788C39.4131 28.8318 41.3267 27.4966 42.0804 25.4771C42.7824 26.3657 43.1605 27.4707 43.1511 28.6064ZM23.2285 20.0032C23.3999 19.8844 23.5032 19.6872 23.5032 19.4781V11.5074C23.5032 11.3245 23.5736 11.1487 23.7004 11.0204C23.8272 10.8897 23.9986 10.8161 24.1794 10.8161C27.2928 10.8161 29.8145 13.3701 29.8145 16.5181V23.2419L23.3974 32.5361C23.2635 32.7285 23.2495 32.9804 23.3575 33.1894C23.4655 33.3985 23.6791 33.5292 23.9116 33.5292C24.1159 33.5292 24.3084 33.427 24.4234 33.2583L30.9415 23.7975C30.9791 23.7476 31.0049 23.693 31.0237 23.6336H38.2552C39.2672 23.6312 40.2533 23.9472 41.0798 24.5388V24.5887V24.5911C40.6454 26.3349 39.1004 27.5632 37.323 27.5751H33.3151C31.4015 27.5775 29.8495 29.1479 29.8472 31.0842V40.9416C29.8472 41.5118 29.9834 42.0725 30.2463 42.5761L31.0916 44.1917H22.3195C20.8614 44.1988 19.4362 43.7569 18.2317 42.9254L15.2709 40.8655V25.4771L23.2285 20.0032ZM1.25197 22.8613H14.0176V40.9223C14.0176 44.0727 11.4959 46.6243 8.38252 46.6243H1.25197V22.8613ZM8.95293 45.0351H3.46813C3.12298 45.0351 2.84121 44.7523 2.84121 44.4007C2.84121 44.0514 3.12296 43.7687 3.46813 43.7687H8.95293C9.54462 43.7687 10.1128 43.5287 10.5308 43.1034C10.9487 42.6758 11.1811 42.0985 11.1764 41.4997V25.104C11.1764 24.7524 11.4558 24.4697 11.801 24.4697C12.1485 24.4697 12.4279 24.7524 12.4279 25.104V41.4997C12.4279 43.4408 10.8713 45.016 8.95299 45.016L8.95293 45.0351ZM35.363 11.723C35.5273 11.887 35.6024 12.1246 35.5625 12.355L35.0131 15.7573C34.8863 16.5009 35.1892 17.254 35.7926 17.696C36.3937 18.1402 37.1943 18.1996 37.8541 17.848L40.8595 16.2443V16.2467C41.0567 16.1493 41.2892 16.1493 41.4864 16.2467L44.4918 17.8504V17.848C44.7736 17.9977 45.0882 18.0761 45.4051 18.0761C45.9827 18.0737 46.5275 17.8148 46.9008 17.3681C47.2718 16.9214 47.4291 16.3322 47.3352 15.7573L46.7646 12.355C46.7247 12.1246 46.7998 11.887 46.9642 11.723L49.4131 9.34004C49.9437 8.8126 50.1339 8.02861 49.9038 7.31347C49.6761 6.59595 49.0656 6.07325 48.3307 5.96396L44.9684 5.46978C44.7359 5.43889 44.5364 5.28921 44.4354 5.07539L42.9327 1.99629C42.6064 1.31916 41.9254 0.891526 41.1788 0.893898C40.4228 0.879644 39.7277 1.30967 39.3943 1.99629L37.8916 5.07539C37.793 5.28921 37.5911 5.43889 37.361 5.46978L33.9987 5.96396C33.2614 6.07325 32.6533 6.59595 32.4232 7.31347C32.1931 8.02861 32.3833 8.8126 32.9139 9.34004L35.363 11.723ZM33.6231 7.68174V7.67936C33.7053 7.42277 33.926 7.23508 34.1913 7.19945L37.5536 6.70527C38.1923 6.61024 38.7417 6.20634 39.0258 5.62191L40.5355 2.5357C40.6529 2.29574 40.8971 2.14607 41.1601 2.14607C41.4254 2.14607 41.6672 2.29574 41.787 2.5357L43.2967 5.62191C43.5808 6.20637 44.1302 6.61027 44.7665 6.70527L48.1288 7.19945C48.3965 7.23508 48.6195 7.42515 48.7017 7.68412C48.7839 7.94309 48.7135 8.22819 48.5186 8.41587L46.0955 10.8345C45.6306 11.2859 45.4193 11.9416 45.532 12.5831L46.1026 15.9734H46.1002C46.1519 16.2395 46.0439 16.5128 45.8255 16.6695C45.6095 16.8335 45.3184 16.8549 45.0812 16.7266L42.0758 15.1229V15.1253C41.5053 14.8212 40.822 14.8212 40.2538 15.1253L37.2485 16.7289V16.7266C37.009 16.8549 36.7202 16.8335 36.5018 16.6743C36.2858 16.5127 36.1755 16.2419 36.2201 15.9735L36.7953 12.5831H36.7977C36.9174 11.9488 36.7178 11.293 36.2647 10.8345L33.8345 8.43254V8.43491C33.6279 8.25198 33.5457 7.9645 33.6232 7.69843L33.6231 7.68174Z" fill="#323D5C"/>
</svg>
