<svg width="475" height="476" viewBox="0 0 475 476" fill="none" xmlns="http://www.w3.org/2000/svg">
<g opacity="0.1">
<path d="M351.462 143.625H257.916C189.696 143.625 134.395 198.901 134.395 267.108V352.517C134.395 420.707 189.696 476 257.916 476H351.462C419.682 476 475 420.724 475 352.517V267.108C475 198.918 419.699 143.625 351.462 143.625ZM445.094 339.791C445.094 373.971 417.375 401.695 383.163 401.695H226.198C192.003 401.695 164.267 373.988 164.267 339.791C164.267 305.61 191.986 277.887 226.198 277.887H383.163C417.358 277.887 445.094 305.593 445.094 339.791Z" fill="#152960"/>
<path d="M384.256 339.791C384.256 357.709 373.746 372.246 360.776 372.246C347.805 372.246 337.295 357.727 337.295 339.791C337.295 321.855 347.805 307.336 360.776 307.336C373.746 307.336 384.256 321.855 384.256 339.791Z" fill="#152960"/>
<path d="M248.585 372.246C261.553 372.246 272.066 357.715 272.066 339.791C272.066 321.866 261.553 307.336 248.585 307.336C235.617 307.336 225.105 321.866 225.105 339.791C225.105 357.715 235.617 372.246 248.585 372.246Z" fill="#152960"/>
<path d="M136.839 242.494C136.839 242.494 65.3036 254.81 27.4339 217.913C27.4339 217.913 -8.96604 175.26 2.09067 135.972C3.13311 132.3 8.14025 131.89 9.66118 135.392C15.8817 149.655 30.134 175.499 52.4525 181.973C94.885 194.255 129.388 201.259 159.397 229.58L136.839 242.494Z" fill="#152960"/>
<path d="M171.069 40.8959C206.084 82.6777 176.435 143.625 176.435 143.625C176.435 143.625 157.5 173.86 171.547 195.041L144.632 226.949C144.632 226.949 99.6187 184.809 127.491 96.7188C127.491 96.7188 139.266 59.8224 118.981 26.1374C114.589 18.8606 112.179 10.5589 111.82 2.08637C111.769 0.82233 112.914 -0.151325 114.162 0.0194919C121.083 0.993147 142.513 6.80092 171.086 40.8959H171.069Z" fill="#152960"/>
</g>
</svg>
