<svg width="42" height="43" viewBox="0 0 42 43" fill="none" xmlns="http://www.w3.org/2000/svg">
<mask id="path-1-outside-1_310_2002" maskUnits="userSpaceOnUse" x="-1" y="-0.5" width="44" height="44" fill="black">
<rect fill="white" x="-1" y="-0.5" width="44" height="44"/>
<path fill-rule="evenodd" clip-rule="evenodd" d="M27.1065 32.9544L28.0127 28.5144C28.5196 26.0318 32.3013 25.6879 32.9615 23.9189L34.4841 19.8557C35.0785 18.7325 36.5117 18.705 37.5273 19.2154L37.6786 12.1942C38.1199 9.63669 41.752 10.1379 42 11.9893L41.6645 28.3116C41.6499 29.1696 41.2232 29.9691 40.5158 30.4557C38.6869 31.6814 37.2574 33.4193 36.4041 35.4537L36.9091 35.5891C37.9977 35.8873 38.645 37.0105 38.3551 38.1045L37.5893 40.9785C37.2921 42.0725 36.1725 42.7201 35.0803 42.4311L24.5011 39.5864C23.4107 39.29 22.7652 38.1667 23.0533 37.0709L23.8137 34.2207H23.8155C23.9541 33.6865 24.3005 33.231 24.7782 32.9547C25.2541 32.6785 25.823 32.6053 26.3536 32.7517L27.1103 32.9547L27.1065 32.9544ZM21 7.66263C18.77 7.66263 16.7588 9.01091 15.9055 11.08C15.0522 13.1473 15.5244 15.5273 17.1016 17.1098C18.6788 18.6904 21.0492 19.1642 23.1115 18.308C25.1719 17.4519 26.5139 15.434 26.5139 13.1967C26.5139 10.1397 24.0448 7.66263 21 7.66263ZM24.2748 9.911C22.9492 8.58286 20.958 8.18585 19.2279 8.90483C17.4975 9.62382 16.3688 11.3178 16.3688 13.1967C16.3688 15.0755 17.4975 16.7695 19.2279 17.4903C20.9583 18.2093 22.9494 17.8105 24.2748 16.4823C26.0836 14.6676 26.0836 11.7258 24.2748 9.911ZM23.5472 2.00791C23.2263 -0.00263638 18.7734 -0.00263638 18.4546 2.00791L18.3452 2.69209C18.2394 3.35066 16.0222 4.28002 15.477 3.88306L14.9173 3.47693C13.2452 2.26217 10.1038 5.41427 11.3142 7.09188L11.719 7.6535C12.1384 8.23709 11.1374 10.4342 10.532 10.5312L9.85008 10.6409C7.82432 10.9684 7.82432 15.4268 9.85008 15.7523L10.532 15.8621C11.1884 15.9682 12.1147 18.1928 11.719 18.7397L11.3142 19.3013C10.1035 20.9789 13.2452 24.1308 14.9173 22.9163L15.477 22.5102C16.0587 22.0894 18.2486 23.0938 18.3452 23.703L18.4546 24.3871C18.7755 26.4013 23.2284 26.3959 23.5472 24.3871L23.6566 23.7011C23.7624 23.0426 25.9796 22.1132 26.5248 22.5102L27.0846 22.9163C28.7566 24.1311 31.8981 20.979 30.6876 19.3013L30.2828 18.7397C29.8634 18.158 30.8645 15.959 31.4698 15.8621L32.1518 15.7523C34.1775 15.4248 34.1775 10.9664 32.1518 10.6409L31.4698 10.5312C30.8134 10.4269 29.8871 8.20047 30.2828 7.6535L30.6876 7.09188C31.8983 5.41432 28.7566 2.26245 27.0846 3.47693L26.5248 3.88306C25.9431 4.30383 23.7533 3.29947 23.6566 2.69209L23.5472 2.00791ZM22.7869 2.83114L22.6775 2.14696C22.5188 1.1481 19.4829 1.1481 19.3225 2.14696L19.2131 2.83114C19.0052 4.14284 16.0604 5.40331 14.9573 4.60017L14.3975 4.19404C13.5496 3.57753 11.4127 5.72159 12.0271 6.57227L12.4319 7.13389C13.2032 8.20412 12.018 11.1879 10.6687 11.4038L9.98681 11.5135C8.96572 11.6782 8.96572 14.715 9.98681 14.8797L10.6687 14.9894C11.9761 15.198 13.2324 18.1525 12.4319 19.2593L12.0271 19.8209C11.4127 20.6716 13.5496 22.8157 14.3975 22.1991L14.9573 21.793C16.024 21.0174 18.9979 22.2083 19.2131 23.562L19.3225 24.2462C19.4829 25.2469 22.517 25.2451 22.6775 24.2462L22.7869 23.562C22.9947 22.2503 25.9395 20.9899 27.0427 21.793L27.6024 22.1991C28.4503 22.8157 30.5873 20.6716 29.9728 19.8209L29.568 19.2593C28.7967 18.1891 29.9819 15.2053 31.3312 14.9894L32.0131 14.8797C33.0342 14.715 33.0342 11.6782 32.0131 11.5135L31.3312 11.4038C30.0238 11.1934 28.7675 8.2407 29.568 7.13389L29.9728 6.57227C30.5873 5.72159 28.4503 3.57753 27.6024 4.19404L27.0427 4.60017C25.976 5.37582 23.0021 4.18489 22.7869 2.83114ZM17.8254 36.2892L11.9449 37.8716C11.7096 37.9338 11.4672 37.7948 11.4033 37.557C11.3413 37.321 11.4817 37.0795 11.7169 37.0155L17.5994 35.4349L17.3295 34.4269C17.1617 33.8031 16.5235 33.4335 15.9018 33.6L5.31883 36.4447H5.32065C4.6989 36.613 4.33056 37.2533 4.4965 37.8772L5.26413 40.7493C5.43188 41.3713 6.07008 41.7409 6.69184 41.5744L17.2748 38.7297H17.273C17.8947 38.5614 18.2631 37.921 18.0971 37.2972L17.8254 36.2892ZM18.945 37.0685L18.9468 37.0704C19.2349 38.1662 18.5894 39.2895 17.499 39.5858L6.91605 42.4306C5.82569 42.7214 4.7061 42.072 4.4089 40.9798L3.64127 38.1058C3.35318 37.0118 3.99865 35.8867 5.08905 35.5903L5.59594 35.4531C4.74261 33.4188 3.31308 31.6809 1.48239 30.4551C0.776754 29.9685 0.350066 29.169 0.335502 28.311L0 11.9874C0.24798 10.1378 3.87833 9.63474 4.3214 12.1923L4.47639 19.2153C5.49202 18.7031 6.92337 18.7287 7.51778 19.8556L9.04029 23.9188C9.70037 25.6878 13.4839 26.0336 13.9891 28.5143L14.8954 32.9543L15.7031 32.7366H15.7013C16.7753 32.464 17.8729 33.0988 18.1756 34.169C18.4692 35.0362 18.7081 36.1613 18.9506 37.0705L18.945 37.0685ZM6.45286 35.2227C5.54482 32.9889 3.99495 31.079 1.99833 29.7362C1.51698 29.4123 1.22524 28.8726 1.21609 28.2928L0.876942 12.0787C1.0374 11.217 3.19444 10.8383 3.44972 12.3147L3.60835 19.9087C3.25279 20.3404 3.13793 20.9222 3.30385 21.4563L4.70967 26.231C4.78078 26.4615 5.02329 26.5914 5.25487 26.5237C5.48462 26.456 5.61955 26.2127 5.55391 25.9803L4.14809 21.2057C3.81806 20.0349 6.15564 19.2226 6.72633 20.2507L8.21239 24.2279C9.02744 26.4104 12.7289 26.7506 13.1244 28.6916L14.0415 33.1847L6.45286 35.2227ZM24.4021 35.4349L30.2846 37.0155H30.2827C30.518 37.0777 30.6584 37.321 30.5945 37.557C30.5326 37.793 30.29 37.9338 30.0548 37.8698L24.1743 36.2892L23.9044 37.2972V37.299C23.7385 37.9228 24.1068 38.5631 24.7286 38.7314L35.3115 41.5762H35.3097C35.6087 41.6567 35.926 41.6146 36.194 41.4573C36.4621 41.3036 36.6572 41.0475 36.7356 40.7493L37.5032 37.8753C37.6254 37.2588 37.2735 36.6459 36.6791 36.4428L26.0961 33.5981H26.098C25.4762 33.4316 24.838 33.803 24.6702 34.4268L24.4004 35.4366L24.4021 35.4349ZM35.5485 35.2227H35.5467C36.4547 32.9889 38.0046 31.079 40.0012 29.7343C40.4826 29.4105 40.7743 28.8726 40.7835 28.2927L41.1208 12.0786C40.9603 11.217 38.8033 10.8383 38.548 12.3146L38.3912 19.9086C38.7467 20.3403 38.8616 20.9221 38.6957 21.4563L37.2899 26.2309C37.2188 26.4614 36.9763 26.5913 36.7447 26.5236C36.5149 26.456 36.38 26.2126 36.4456 25.9803L37.8515 21.2038C38.1815 20.0329 35.8439 19.2207 35.2732 20.2488L33.7872 24.226C32.9721 26.4085 29.2706 26.7487 28.8752 28.6897L27.958 33.1828L35.5485 35.2227Z"/>
</mask>
<path fill-rule="evenodd" clip-rule="evenodd" d="M27.1065 32.9544L28.0127 28.5144C28.5196 26.0318 32.3013 25.6879 32.9615 23.9189L34.4841 19.8557C35.0785 18.7325 36.5117 18.705 37.5273 19.2154L37.6786 12.1942C38.1199 9.63669 41.752 10.1379 42 11.9893L41.6645 28.3116C41.6499 29.1696 41.2232 29.9691 40.5158 30.4557C38.6869 31.6814 37.2574 33.4193 36.4041 35.4537L36.9091 35.5891C37.9977 35.8873 38.645 37.0105 38.3551 38.1045L37.5893 40.9785C37.2921 42.0725 36.1725 42.7201 35.0803 42.4311L24.5011 39.5864C23.4107 39.29 22.7652 38.1667 23.0533 37.0709L23.8137 34.2207H23.8155C23.9541 33.6865 24.3005 33.231 24.7782 32.9547C25.2541 32.6785 25.823 32.6053 26.3536 32.7517L27.1103 32.9547L27.1065 32.9544ZM21 7.66263C18.77 7.66263 16.7588 9.01091 15.9055 11.08C15.0522 13.1473 15.5244 15.5273 17.1016 17.1098C18.6788 18.6904 21.0492 19.1642 23.1115 18.308C25.1719 17.4519 26.5139 15.434 26.5139 13.1967C26.5139 10.1397 24.0448 7.66263 21 7.66263ZM24.2748 9.911C22.9492 8.58286 20.958 8.18585 19.2279 8.90483C17.4975 9.62382 16.3688 11.3178 16.3688 13.1967C16.3688 15.0755 17.4975 16.7695 19.2279 17.4903C20.9583 18.2093 22.9494 17.8105 24.2748 16.4823C26.0836 14.6676 26.0836 11.7258 24.2748 9.911ZM23.5472 2.00791C23.2263 -0.00263638 18.7734 -0.00263638 18.4546 2.00791L18.3452 2.69209C18.2394 3.35066 16.0222 4.28002 15.477 3.88306L14.9173 3.47693C13.2452 2.26217 10.1038 5.41427 11.3142 7.09188L11.719 7.6535C12.1384 8.23709 11.1374 10.4342 10.532 10.5312L9.85008 10.6409C7.82432 10.9684 7.82432 15.4268 9.85008 15.7523L10.532 15.8621C11.1884 15.9682 12.1147 18.1928 11.719 18.7397L11.3142 19.3013C10.1035 20.9789 13.2452 24.1308 14.9173 22.9163L15.477 22.5102C16.0587 22.0894 18.2486 23.0938 18.3452 23.703L18.4546 24.3871C18.7755 26.4013 23.2284 26.3959 23.5472 24.3871L23.6566 23.7011C23.7624 23.0426 25.9796 22.1132 26.5248 22.5102L27.0846 22.9163C28.7566 24.1311 31.8981 20.979 30.6876 19.3013L30.2828 18.7397C29.8634 18.158 30.8645 15.959 31.4698 15.8621L32.1518 15.7523C34.1775 15.4248 34.1775 10.9664 32.1518 10.6409L31.4698 10.5312C30.8134 10.4269 29.8871 8.20047 30.2828 7.6535L30.6876 7.09188C31.8983 5.41432 28.7566 2.26245 27.0846 3.47693L26.5248 3.88306C25.9431 4.30383 23.7533 3.29947 23.6566 2.69209L23.5472 2.00791ZM22.7869 2.83114L22.6775 2.14696C22.5188 1.1481 19.4829 1.1481 19.3225 2.14696L19.2131 2.83114C19.0052 4.14284 16.0604 5.40331 14.9573 4.60017L14.3975 4.19404C13.5496 3.57753 11.4127 5.72159 12.0271 6.57227L12.4319 7.13389C13.2032 8.20412 12.018 11.1879 10.6687 11.4038L9.98681 11.5135C8.96572 11.6782 8.96572 14.715 9.98681 14.8797L10.6687 14.9894C11.9761 15.198 13.2324 18.1525 12.4319 19.2593L12.0271 19.8209C11.4127 20.6716 13.5496 22.8157 14.3975 22.1991L14.9573 21.793C16.024 21.0174 18.9979 22.2083 19.2131 23.562L19.3225 24.2462C19.4829 25.2469 22.517 25.2451 22.6775 24.2462L22.7869 23.562C22.9947 22.2503 25.9395 20.9899 27.0427 21.793L27.6024 22.1991C28.4503 22.8157 30.5873 20.6716 29.9728 19.8209L29.568 19.2593C28.7967 18.1891 29.9819 15.2053 31.3312 14.9894L32.0131 14.8797C33.0342 14.715 33.0342 11.6782 32.0131 11.5135L31.3312 11.4038C30.0238 11.1934 28.7675 8.2407 29.568 7.13389L29.9728 6.57227C30.5873 5.72159 28.4503 3.57753 27.6024 4.19404L27.0427 4.60017C25.976 5.37582 23.0021 4.18489 22.7869 2.83114ZM17.8254 36.2892L11.9449 37.8716C11.7096 37.9338 11.4672 37.7948 11.4033 37.557C11.3413 37.321 11.4817 37.0795 11.7169 37.0155L17.5994 35.4349L17.3295 34.4269C17.1617 33.8031 16.5235 33.4335 15.9018 33.6L5.31883 36.4447H5.32065C4.6989 36.613 4.33056 37.2533 4.4965 37.8772L5.26413 40.7493C5.43188 41.3713 6.07008 41.7409 6.69184 41.5744L17.2748 38.7297H17.273C17.8947 38.5614 18.2631 37.921 18.0971 37.2972L17.8254 36.2892ZM18.945 37.0685L18.9468 37.0704C19.2349 38.1662 18.5894 39.2895 17.499 39.5858L6.91605 42.4306C5.82569 42.7214 4.7061 42.072 4.4089 40.9798L3.64127 38.1058C3.35318 37.0118 3.99865 35.8867 5.08905 35.5903L5.59594 35.4531C4.74261 33.4188 3.31308 31.6809 1.48239 30.4551C0.776754 29.9685 0.350066 29.169 0.335502 28.311L0 11.9874C0.24798 10.1378 3.87833 9.63474 4.3214 12.1923L4.47639 19.2153C5.49202 18.7031 6.92337 18.7287 7.51778 19.8556L9.04029 23.9188C9.70037 25.6878 13.4839 26.0336 13.9891 28.5143L14.8954 32.9543L15.7031 32.7366H15.7013C16.7753 32.464 17.8729 33.0988 18.1756 34.169C18.4692 35.0362 18.7081 36.1613 18.9506 37.0705L18.945 37.0685ZM6.45286 35.2227C5.54482 32.9889 3.99495 31.079 1.99833 29.7362C1.51698 29.4123 1.22524 28.8726 1.21609 28.2928L0.876942 12.0787C1.0374 11.217 3.19444 10.8383 3.44972 12.3147L3.60835 19.9087C3.25279 20.3404 3.13793 20.9222 3.30385 21.4563L4.70967 26.231C4.78078 26.4615 5.02329 26.5914 5.25487 26.5237C5.48462 26.456 5.61955 26.2127 5.55391 25.9803L4.14809 21.2057C3.81806 20.0349 6.15564 19.2226 6.72633 20.2507L8.21239 24.2279C9.02744 26.4104 12.7289 26.7506 13.1244 28.6916L14.0415 33.1847L6.45286 35.2227ZM24.4021 35.4349L30.2846 37.0155H30.2827C30.518 37.0777 30.6584 37.321 30.5945 37.557C30.5326 37.793 30.29 37.9338 30.0548 37.8698L24.1743 36.2892L23.9044 37.2972V37.299C23.7385 37.9228 24.1068 38.5631 24.7286 38.7314L35.3115 41.5762H35.3097C35.6087 41.6567 35.926 41.6146 36.194 41.4573C36.4621 41.3036 36.6572 41.0475 36.7356 40.7493L37.5032 37.8753C37.6254 37.2588 37.2735 36.6459 36.6791 36.4428L26.0961 33.5981H26.098C25.4762 33.4316 24.838 33.803 24.6702 34.4268L24.4004 35.4366L24.4021 35.4349ZM35.5485 35.2227H35.5467C36.4547 32.9889 38.0046 31.079 40.0012 29.7343C40.4826 29.4105 40.7743 28.8726 40.7835 28.2927L41.1208 12.0786C40.9603 11.217 38.8033 10.8383 38.548 12.3146L38.3912 19.9086C38.7467 20.3403 38.8616 20.9221 38.6957 21.4563L37.2899 26.2309C37.2188 26.4614 36.9763 26.5913 36.7447 26.5236C36.5149 26.456 36.38 26.2126 36.4456 25.9803L37.8515 21.2038C38.1815 20.0329 35.8439 19.2207 35.2732 20.2488L33.7872 24.226C32.9721 26.4085 29.2706 26.7487 28.8752 28.6897L27.958 33.1828L35.5485 35.2227Z" fill="#162960"/>
<path fill-rule="evenodd" clip-rule="evenodd" d="M27.1065 32.9544L28.0127 28.5144C28.5196 26.0318 32.3013 25.6879 32.9615 23.9189L34.4841 19.8557C35.0785 18.7325 36.5117 18.705 37.5273 19.2154L37.6786 12.1942C38.1199 9.63669 41.752 10.1379 42 11.9893L41.6645 28.3116C41.6499 29.1696 41.2232 29.9691 40.5158 30.4557C38.6869 31.6814 37.2574 33.4193 36.4041 35.4537L36.9091 35.5891C37.9977 35.8873 38.645 37.0105 38.3551 38.1045L37.5893 40.9785C37.2921 42.0725 36.1725 42.7201 35.0803 42.4311L24.5011 39.5864C23.4107 39.29 22.7652 38.1667 23.0533 37.0709L23.8137 34.2207H23.8155C23.9541 33.6865 24.3005 33.231 24.7782 32.9547C25.2541 32.6785 25.823 32.6053 26.3536 32.7517L27.1103 32.9547L27.1065 32.9544ZM21 7.66263C18.77 7.66263 16.7588 9.01091 15.9055 11.08C15.0522 13.1473 15.5244 15.5273 17.1016 17.1098C18.6788 18.6904 21.0492 19.1642 23.1115 18.308C25.1719 17.4519 26.5139 15.434 26.5139 13.1967C26.5139 10.1397 24.0448 7.66263 21 7.66263ZM24.2748 9.911C22.9492 8.58286 20.958 8.18585 19.2279 8.90483C17.4975 9.62382 16.3688 11.3178 16.3688 13.1967C16.3688 15.0755 17.4975 16.7695 19.2279 17.4903C20.9583 18.2093 22.9494 17.8105 24.2748 16.4823C26.0836 14.6676 26.0836 11.7258 24.2748 9.911ZM23.5472 2.00791C23.2263 -0.00263638 18.7734 -0.00263638 18.4546 2.00791L18.3452 2.69209C18.2394 3.35066 16.0222 4.28002 15.477 3.88306L14.9173 3.47693C13.2452 2.26217 10.1038 5.41427 11.3142 7.09188L11.719 7.6535C12.1384 8.23709 11.1374 10.4342 10.532 10.5312L9.85008 10.6409C7.82432 10.9684 7.82432 15.4268 9.85008 15.7523L10.532 15.8621C11.1884 15.9682 12.1147 18.1928 11.719 18.7397L11.3142 19.3013C10.1035 20.9789 13.2452 24.1308 14.9173 22.9163L15.477 22.5102C16.0587 22.0894 18.2486 23.0938 18.3452 23.703L18.4546 24.3871C18.7755 26.4013 23.2284 26.3959 23.5472 24.3871L23.6566 23.7011C23.7624 23.0426 25.9796 22.1132 26.5248 22.5102L27.0846 22.9163C28.7566 24.1311 31.8981 20.979 30.6876 19.3013L30.2828 18.7397C29.8634 18.158 30.8645 15.959 31.4698 15.8621L32.1518 15.7523C34.1775 15.4248 34.1775 10.9664 32.1518 10.6409L31.4698 10.5312C30.8134 10.4269 29.8871 8.20047 30.2828 7.6535L30.6876 7.09188C31.8983 5.41432 28.7566 2.26245 27.0846 3.47693L26.5248 3.88306C25.9431 4.30383 23.7533 3.29947 23.6566 2.69209L23.5472 2.00791ZM22.7869 2.83114L22.6775 2.14696C22.5188 1.1481 19.4829 1.1481 19.3225 2.14696L19.2131 2.83114C19.0052 4.14284 16.0604 5.40331 14.9573 4.60017L14.3975 4.19404C13.5496 3.57753 11.4127 5.72159 12.0271 6.57227L12.4319 7.13389C13.2032 8.20412 12.018 11.1879 10.6687 11.4038L9.98681 11.5135C8.96572 11.6782 8.96572 14.715 9.98681 14.8797L10.6687 14.9894C11.9761 15.198 13.2324 18.1525 12.4319 19.2593L12.0271 19.8209C11.4127 20.6716 13.5496 22.8157 14.3975 22.1991L14.9573 21.793C16.024 21.0174 18.9979 22.2083 19.2131 23.562L19.3225 24.2462C19.4829 25.2469 22.517 25.2451 22.6775 24.2462L22.7869 23.562C22.9947 22.2503 25.9395 20.9899 27.0427 21.793L27.6024 22.1991C28.4503 22.8157 30.5873 20.6716 29.9728 19.8209L29.568 19.2593C28.7967 18.1891 29.9819 15.2053 31.3312 14.9894L32.0131 14.8797C33.0342 14.715 33.0342 11.6782 32.0131 11.5135L31.3312 11.4038C30.0238 11.1934 28.7675 8.2407 29.568 7.13389L29.9728 6.57227C30.5873 5.72159 28.4503 3.57753 27.6024 4.19404L27.0427 4.60017C25.976 5.37582 23.0021 4.18489 22.7869 2.83114ZM17.8254 36.2892L11.9449 37.8716C11.7096 37.9338 11.4672 37.7948 11.4033 37.557C11.3413 37.321 11.4817 37.0795 11.7169 37.0155L17.5994 35.4349L17.3295 34.4269C17.1617 33.8031 16.5235 33.4335 15.9018 33.6L5.31883 36.4447H5.32065C4.6989 36.613 4.33056 37.2533 4.4965 37.8772L5.26413 40.7493C5.43188 41.3713 6.07008 41.7409 6.69184 41.5744L17.2748 38.7297H17.273C17.8947 38.5614 18.2631 37.921 18.0971 37.2972L17.8254 36.2892ZM18.945 37.0685L18.9468 37.0704C19.2349 38.1662 18.5894 39.2895 17.499 39.5858L6.91605 42.4306C5.82569 42.7214 4.7061 42.072 4.4089 40.9798L3.64127 38.1058C3.35318 37.0118 3.99865 35.8867 5.08905 35.5903L5.59594 35.4531C4.74261 33.4188 3.31308 31.6809 1.48239 30.4551C0.776754 29.9685 0.350066 29.169 0.335502 28.311L0 11.9874C0.24798 10.1378 3.87833 9.63474 4.3214 12.1923L4.47639 19.2153C5.49202 18.7031 6.92337 18.7287 7.51778 19.8556L9.04029 23.9188C9.70037 25.6878 13.4839 26.0336 13.9891 28.5143L14.8954 32.9543L15.7031 32.7366H15.7013C16.7753 32.464 17.8729 33.0988 18.1756 34.169C18.4692 35.0362 18.7081 36.1613 18.9506 37.0705L18.945 37.0685ZM6.45286 35.2227C5.54482 32.9889 3.99495 31.079 1.99833 29.7362C1.51698 29.4123 1.22524 28.8726 1.21609 28.2928L0.876942 12.0787C1.0374 11.217 3.19444 10.8383 3.44972 12.3147L3.60835 19.9087C3.25279 20.3404 3.13793 20.9222 3.30385 21.4563L4.70967 26.231C4.78078 26.4615 5.02329 26.5914 5.25487 26.5237C5.48462 26.456 5.61955 26.2127 5.55391 25.9803L4.14809 21.2057C3.81806 20.0349 6.15564 19.2226 6.72633 20.2507L8.21239 24.2279C9.02744 26.4104 12.7289 26.7506 13.1244 28.6916L14.0415 33.1847L6.45286 35.2227ZM24.4021 35.4349L30.2846 37.0155H30.2827C30.518 37.0777 30.6584 37.321 30.5945 37.557C30.5326 37.793 30.29 37.9338 30.0548 37.8698L24.1743 36.2892L23.9044 37.2972V37.299C23.7385 37.9228 24.1068 38.5631 24.7286 38.7314L35.3115 41.5762H35.3097C35.6087 41.6567 35.926 41.6146 36.194 41.4573C36.4621 41.3036 36.6572 41.0475 36.7356 40.7493L37.5032 37.8753C37.6254 37.2588 37.2735 36.6459 36.6791 36.4428L26.0961 33.5981H26.098C25.4762 33.4316 24.838 33.803 24.6702 34.4268L24.4004 35.4366L24.4021 35.4349ZM35.5485 35.2227H35.5467C36.4547 32.9889 38.0046 31.079 40.0012 29.7343C40.4826 29.4105 40.7743 28.8726 40.7835 28.2927L41.1208 12.0786C40.9603 11.217 38.8033 10.8383 38.548 12.3146L38.3912 19.9086C38.7467 20.3403 38.8616 20.9221 38.6957 21.4563L37.2899 26.2309C37.2188 26.4614 36.9763 26.5913 36.7447 26.5236C36.5149 26.456 36.38 26.2126 36.4456 25.9803L37.8515 21.2038C38.1815 20.0329 35.8439 19.2207 35.2732 20.2488L33.7872 24.226C32.9721 26.4085 29.2706 26.7487 28.8752 28.6897L27.958 33.1828L35.5485 35.2227Z" stroke="#162960" stroke-width="0.4" mask="url(#path-1-outside-1_310_2002)"/>
</svg>
