<svg width="43" height="43" viewBox="0 0 43 43" fill="none" xmlns="http://www.w3.org/2000/svg">
<path d="M32.5009 38.7366C30.9243 39.2024 29.0609 39.4174 26.8751 39.4174H16.1251C13.9393 39.4174 12.0759 39.2024 10.4993 38.7366C10.8934 34.0782 15.6772 30.4053 21.5001 30.4053C27.323 30.4053 32.1068 34.0782 32.5009 38.7366Z" stroke="#152960" stroke-width="2" stroke-linecap="round" stroke-linejoin="round"/>
<path d="M26.8749 3.58447H16.1249C7.16659 3.58447 3.58325 7.16781 3.58325 16.1261V26.8761C3.58325 33.6486 5.62575 37.3574 10.4991 38.737C10.8933 34.0786 15.677 30.4057 21.4999 30.4057C27.3228 30.4057 32.1066 34.0786 32.5008 38.737C37.3741 37.3574 39.4166 33.6486 39.4166 26.8761V16.1261C39.4166 7.16781 35.8333 3.58447 26.8749 3.58447ZM21.4999 25.389C17.9524 25.389 15.0857 22.5045 15.0857 18.957C15.0857 15.4095 17.9524 12.5428 21.4999 12.5428C25.0474 12.5428 27.9141 15.4095 27.9141 18.957C27.9141 22.5045 25.0474 25.389 21.4999 25.389Z" stroke="#152960" stroke-width="2" stroke-linecap="round" stroke-linejoin="round"/>
<path d="M27.9143 18.9567C27.9143 22.5042 25.0476 25.3887 21.5001 25.3887C17.9526 25.3887 15.0859 22.5042 15.0859 18.9567C15.0859 15.4092 17.9526 12.5425 21.5001 12.5425C25.0476 12.5425 27.9143 15.4092 27.9143 18.9567Z" stroke="#152960" stroke-width="2" stroke-linecap="round" stroke-linejoin="round"/>
</svg>
