<svg width="43" height="43" viewBox="0 0 43 43" fill="none" xmlns="http://www.w3.org/2000/svg">
<path d="M39.4167 10.7511V15.087C39.4167 17.9178 37.6251 19.7095 34.7942 19.7095H28.6667V7.18572C28.6667 5.19697 30.2972 3.58447 32.286 3.58447C34.2389 3.60239 36.0305 4.39072 37.3205 5.68072C38.6105 6.98864 39.4167 8.78031 39.4167 10.7511Z" stroke="#152960" stroke-width="2" stroke-miterlimit="10" stroke-linecap="round" stroke-linejoin="round"/>
<path d="M3.58325 12.5428V37.6261C3.58325 39.1132 5.26737 39.9553 6.44987 39.0595L9.51366 36.7661C10.2303 36.2286 11.2337 36.3003 11.8787 36.9453L14.8528 39.9374C15.5515 40.6361 16.6983 40.6361 17.397 39.9374L20.407 36.9274C21.0341 36.3003 22.0374 36.2286 22.7362 36.7661L25.8 39.0595C26.9825 39.9374 28.6666 39.0953 28.6666 37.6261V7.16781C28.6666 5.19697 30.2791 3.58447 32.2499 3.58447H12.5416H10.7499C5.37492 3.58447 3.58325 6.79156 3.58325 10.7511V12.5428Z" stroke="#152960" stroke-width="2" stroke-miterlimit="10" stroke-linecap="round" stroke-linejoin="round"/>
<path d="M10.75 16.126H21.5" stroke="#152960" stroke-width="2" stroke-linecap="round" stroke-linejoin="round"/>
<path d="M12.0938 23.2925H20.1562" stroke="#152960" stroke-width="2" stroke-linecap="round" stroke-linejoin="round"/>
</svg>
